<svg width="17" height="22" viewBox="0 0 17 22" fill="none" xmlns="http://www.w3.org/2000/svg">
<mask id="mask0" mask-type="alpha" maskUnits="userSpaceOnUse" x="0" y="0" width="17" height="22">
<path fill-rule="evenodd" clip-rule="evenodd" d="M14.1375 7.665H13.1847V5.75928C13.1847 3.1294 11.0503 0.994995 8.4204 0.994995C5.79052 0.994995 3.65612 3.1294 3.65612 5.75928H5.56183C5.56183 4.17754 6.83866 2.90071 8.4204 2.90071C10.0021 2.90071 11.279 4.17754 11.279 5.75928V7.665H2.70326C1.65512 7.665 0.797546 8.52257 0.797546 9.57071V19.0993C0.797546 20.1474 1.65512 21.005 2.70326 21.005H14.1375C15.1857 21.005 16.0433 20.1474 16.0433 19.0993V9.57071C16.0433 8.52257 15.1857 7.665 14.1375 7.665ZM2.70326 19.0993V9.57071H14.1375V19.0993H2.70326ZM10.3261 14.335C10.3261 15.3831 9.46855 16.2407 8.4204 16.2407C7.37226 16.2407 6.51469 15.3831 6.51469 14.335C6.51469 13.2869 7.37226 12.4293 8.4204 12.4293C9.46855 12.4293 10.3261 13.2869 10.3261 14.335Z" fill="white"/>
</mask>
<g mask="url(#mask0)">
<rect x="-4" y="-1" width="24" height="24" fill="#66788A"/>
</g>
</svg>
