<svg width="238" height="316" viewBox="0 0 238 316" fill="none" xmlns="http://www.w3.org/2000/svg">
<g filter="url(#filter0_i)">
<rect width="238" height="46" rx="4" fill="#F6F9FD"/>
</g>
<path fill-rule="evenodd" clip-rule="evenodd" d="M18.8004 13.5216H27.2256V24.0532H18.8004V13.5216ZM37.7572 13.5216H29.3319V19.8405H37.7572V13.5216ZM25.1193 21.9468V15.6279H20.9067V21.9468H25.1193ZM35.6509 17.7342V15.6279H31.4382V17.7342H35.6509ZM35.6509 24.0532V30.3721H31.4382V24.0532H35.6509ZM25.1193 30.3721V28.2658H20.9067V30.3721H25.1193ZM37.7572 21.9468H29.3319V32.4784H37.7572V21.9468ZM18.8004 26.1595H27.2256V32.4784H18.8004V26.1595Z" fill="#3F51B5"/>
<path d="M49.0117 28V18.0469H51.9512C52.8307 18.0469 53.61 18.2428 54.2891 18.6348C54.9727 19.0267 55.5013 19.5827 55.875 20.3027C56.2487 21.0228 56.4355 21.8477 56.4355 22.7773V23.2764C56.4355 24.2197 56.2464 25.0492 55.8682 25.7646C55.4945 26.4801 54.959 27.0316 54.2617 27.4189C53.569 27.8063 52.7738 28 51.876 28H49.0117ZM50.7412 19.4414V26.6191H51.8691C52.776 26.6191 53.471 26.3366 53.9541 25.7715C54.4417 25.2018 54.6901 24.3861 54.6992 23.3242V22.7705C54.6992 21.6904 54.4645 20.8656 53.9951 20.2959C53.5257 19.7262 52.8444 19.4414 51.9512 19.4414H50.7412ZM62.367 28C62.2941 27.8587 62.2303 27.6286 62.1756 27.3096C61.6469 27.861 60.9998 28.1367 60.2342 28.1367C59.4913 28.1367 58.8852 27.9248 58.4158 27.501C57.9464 27.0771 57.7117 26.5531 57.7117 25.9287C57.7117 25.1403 58.0034 24.5365 58.5867 24.1172C59.1746 23.6934 60.0132 23.4814 61.1023 23.4814H62.1209V22.9961C62.1209 22.6133 62.0138 22.3079 61.7996 22.0801C61.5854 21.8477 61.2596 21.7314 60.8221 21.7314C60.4438 21.7314 60.1339 21.8271 59.8924 22.0186C59.6508 22.2054 59.5301 22.4447 59.5301 22.7363H57.8689C57.8689 22.3307 58.0034 21.9525 58.2723 21.6016C58.5411 21.2461 58.9057 20.9681 59.366 20.7676C59.8309 20.5671 60.3481 20.4668 60.9178 20.4668C61.7837 20.4668 62.4741 20.6855 62.9891 21.123C63.504 21.556 63.7684 22.1667 63.782 22.9551V26.291C63.782 26.9564 63.8755 27.4873 64.0623 27.8838V28H62.367ZM60.5418 26.8037C60.8699 26.8037 61.1775 26.724 61.4646 26.5645C61.7563 26.4049 61.9751 26.1908 62.1209 25.9219V24.5273H61.2254C60.6102 24.5273 60.1476 24.6344 59.8377 24.8486C59.5278 25.0628 59.3729 25.3659 59.3729 25.7578C59.3729 26.0768 59.4777 26.332 59.6873 26.5234C59.9015 26.7103 60.1863 26.8037 60.5418 26.8037ZM69.6178 25.9902C69.6178 25.694 69.4947 25.4684 69.2486 25.3135C69.0071 25.1585 68.6038 25.0218 68.0387 24.9033C67.4736 24.7848 67.0019 24.6344 66.6236 24.4521C65.7942 24.0511 65.3795 23.4701 65.3795 22.709C65.3795 22.071 65.6484 21.5378 66.1861 21.1094C66.7239 20.681 67.4075 20.4668 68.2369 20.4668C69.121 20.4668 69.8342 20.6855 70.3766 21.123C70.9234 21.5605 71.1969 22.1279 71.1969 22.8252H69.5357C69.5357 22.5062 69.4173 22.2419 69.1803 22.0322C68.9433 21.818 68.6288 21.7109 68.2369 21.7109C67.8723 21.7109 67.5738 21.7952 67.3414 21.9639C67.1135 22.1325 66.9996 22.3581 66.9996 22.6406C66.9996 22.8958 67.1067 23.0941 67.3209 23.2354C67.5351 23.3766 67.968 23.5202 68.6197 23.666C69.2714 23.8073 69.7818 23.9782 70.151 24.1787C70.5247 24.3747 70.8004 24.6117 70.9781 24.8896C71.1604 25.1676 71.2516 25.5049 71.2516 25.9014C71.2516 26.5667 70.9758 27.1068 70.4244 27.5215C69.873 27.9316 69.1507 28.1367 68.2574 28.1367C67.6513 28.1367 67.1113 28.0273 66.6373 27.8086C66.1633 27.5898 65.7942 27.2891 65.5299 26.9062C65.2656 26.5234 65.1334 26.111 65.1334 25.6689H66.7467C66.7695 26.0609 66.9176 26.3639 67.191 26.5781C67.4645 26.7878 67.8268 26.8926 68.2779 26.8926C68.7154 26.8926 69.0481 26.8105 69.276 26.6465C69.5038 26.4779 69.6178 26.2591 69.6178 25.9902ZM74.2914 21.4102C74.8337 20.7812 75.5196 20.4668 76.349 20.4668C77.9258 20.4668 78.7257 21.3669 78.7484 23.167V28H77.0873V23.2285C77.0873 22.7181 76.9757 22.3581 76.7523 22.1484C76.5336 21.9342 76.21 21.8271 75.7816 21.8271C75.1163 21.8271 74.6195 22.1234 74.2914 22.7158V28H72.6303V17.5H74.2914V21.4102ZM86.8742 24.377C86.8742 25.5254 86.6167 26.4391 86.1018 27.1182C85.5913 27.7972 84.8872 28.1367 83.9895 28.1367C83.1236 28.1367 82.4491 27.8245 81.966 27.2002L81.884 28H80.3801V17.5H82.0412V21.3145C82.5197 20.7493 83.1646 20.4668 83.9758 20.4668C84.8781 20.4668 85.5868 20.8018 86.1018 21.4717C86.6167 22.1416 86.8742 23.0781 86.8742 24.2812V24.377ZM85.2131 24.2334C85.2131 23.4313 85.0718 22.8298 84.7893 22.4287C84.5067 22.0277 84.0965 21.8271 83.5588 21.8271C82.8387 21.8271 82.3329 22.1416 82.0412 22.7705V25.8193C82.3374 26.4619 82.8479 26.7832 83.5725 26.7832C84.092 26.7832 84.493 26.5895 84.7756 26.2021C85.0581 25.8148 85.204 25.2292 85.2131 24.4453V24.2334ZM87.9111 24.2334C87.9111 23.5088 88.0547 22.8571 88.3418 22.2783C88.6289 21.695 89.0322 21.2484 89.5518 20.9385C90.0713 20.624 90.6683 20.4668 91.3428 20.4668C92.3408 20.4668 93.1497 20.7881 93.7695 21.4307C94.3939 22.0732 94.7311 22.9255 94.7812 23.9873L94.7881 24.377C94.7881 25.1061 94.6468 25.7578 94.3643 26.332C94.0863 26.9062 93.6852 27.3506 93.1611 27.665C92.6416 27.9795 92.04 28.1367 91.3564 28.1367C90.3128 28.1367 89.4766 27.7904 88.8477 27.0977C88.2233 26.4004 87.9111 25.473 87.9111 24.3154V24.2334ZM89.5723 24.377C89.5723 25.138 89.7295 25.735 90.0439 26.168C90.3584 26.5964 90.7959 26.8105 91.3564 26.8105C91.917 26.8105 92.3522 26.5918 92.6621 26.1543C92.9766 25.7168 93.1338 25.0765 93.1338 24.2334C93.1338 23.486 92.972 22.8936 92.6484 22.4561C92.3294 22.0186 91.8942 21.7998 91.3428 21.7998C90.8005 21.7998 90.3698 22.0163 90.0508 22.4492C89.7318 22.8776 89.5723 23.5202 89.5723 24.377ZM100.562 28C100.489 27.8587 100.426 27.6286 100.371 27.3096C99.8423 27.861 99.1951 28.1367 98.4295 28.1367C97.6867 28.1367 97.0805 27.9248 96.6111 27.501C96.1417 27.0771 95.907 26.5531 95.907 25.9287C95.907 25.1403 96.1987 24.5365 96.782 24.1172C97.3699 23.6934 98.2085 23.4814 99.2977 23.4814H100.316V22.9961C100.316 22.6133 100.209 22.3079 99.9949 22.0801C99.7807 21.8477 99.4549 21.7314 99.0174 21.7314C98.6391 21.7314 98.3292 21.8271 98.0877 22.0186C97.8462 22.2054 97.7254 22.4447 97.7254 22.7363H96.0643C96.0643 22.3307 96.1987 21.9525 96.4676 21.6016C96.7365 21.2461 97.101 20.9681 97.5613 20.7676C98.0262 20.5671 98.5434 20.4668 99.1131 20.4668C99.979 20.4668 100.669 20.6855 101.184 21.123C101.699 21.556 101.964 22.1667 101.977 22.9551V26.291C101.977 26.9564 102.071 27.4873 102.258 27.8838V28H100.562ZM98.7371 26.8037C99.0652 26.8037 99.3729 26.724 99.66 26.5645C99.9516 26.4049 100.17 26.1908 100.316 25.9219V24.5273H99.4207C98.8055 24.5273 98.3429 24.6344 98.033 24.8486C97.7231 25.0628 97.5682 25.3659 97.5682 25.7578C97.5682 26.0768 97.673 26.332 97.8826 26.5234C98.0968 26.7103 98.3816 26.8037 98.7371 26.8037ZM107.54 22.1211C107.321 22.0846 107.095 22.0664 106.863 22.0664C106.102 22.0664 105.589 22.3581 105.325 22.9414V28H103.664V20.6035H105.25L105.291 21.4307C105.692 20.7881 106.248 20.4668 106.959 20.4668C107.196 20.4668 107.392 20.4987 107.546 20.5625L107.54 22.1211ZM108.091 24.2471C108.091 23.1077 108.356 22.194 108.884 21.5059C109.413 20.8132 110.121 20.4668 111.01 20.4668C111.794 20.4668 112.427 20.7402 112.911 21.2871V17.5H114.572V28H113.068L112.986 27.2344C112.489 27.8359 111.826 28.1367 110.996 28.1367C110.131 28.1367 109.429 27.7881 108.891 27.0908C108.358 26.3936 108.091 25.4456 108.091 24.2471ZM109.752 24.3906C109.752 25.1426 109.896 25.7305 110.183 26.1543C110.475 26.5736 110.887 26.7832 111.42 26.7832C112.099 26.7832 112.596 26.4801 112.911 25.874V22.7158C112.605 22.1234 112.113 21.8271 111.434 21.8271C110.896 21.8271 110.482 22.0413 110.19 22.4697C109.898 22.8936 109.752 23.5339 109.752 24.3906Z" fill="#212529"/>
<mask id="mask0" mask-type="alpha" maskUnits="userSpaceOnUse" x="18" y="122" width="20" height="18">
<path fill-rule="evenodd" clip-rule="evenodd" d="M32.3024 128.825H36.4697C36.9482 128.825 37.3397 129.217 37.3397 129.695L37.3136 129.93L35.1038 137.995C34.895 138.726 34.2251 139.265 33.4247 139.265H22.1147C21.3143 139.265 20.6444 138.726 20.4443 137.995L18.2345 129.93C18.2084 129.852 18.1997 129.773 18.1997 129.695C18.1997 129.217 18.5912 128.825 19.0697 128.825H23.237L27.0476 123.127C27.2129 122.874 27.4913 122.752 27.7697 122.752C28.0481 122.752 28.3265 122.874 28.4918 123.118L32.3024 128.825ZM30.2057 128.825L27.7697 125.171L25.3337 128.825H30.2057ZM33.4247 137.525L22.1234 137.534L20.2094 130.565H35.3387L33.4247 137.525ZM26.0297 134.045C26.0297 133.088 26.8127 132.305 27.7697 132.305C28.7267 132.305 29.5097 133.088 29.5097 134.045C29.5097 135.002 28.7267 135.785 27.7697 135.785C26.8127 135.785 26.0297 135.002 26.0297 134.045Z" fill="white"/>
</mask>
<g mask="url(#mask0)">
<rect x="16" y="119" width="24" height="24" fill="#66788A"/>
</g>
<path d="M50.7412 132.302V136H49.0117V126.047H52.8193C53.9313 126.047 54.8132 126.336 55.4648 126.915C56.1211 127.494 56.4492 128.259 56.4492 129.212C56.4492 130.187 56.1279 130.946 55.4854 131.488C54.8473 132.031 53.9518 132.302 52.7988 132.302H50.7412ZM50.7412 130.914H52.8193C53.4346 130.914 53.904 130.771 54.2275 130.483C54.5511 130.192 54.7129 129.772 54.7129 129.226C54.7129 128.688 54.5488 128.259 54.2207 127.94C53.8926 127.617 53.4414 127.451 52.8672 127.441H50.7412V130.914ZM61.6287 130.121C61.41 130.085 61.1844 130.066 60.952 130.066C60.1909 130.066 59.6782 130.358 59.4139 130.941V136H57.7527V128.604H59.3387L59.3797 129.431C59.7807 128.788 60.3367 128.467 61.0477 128.467C61.2846 128.467 61.4806 128.499 61.6355 128.562L61.6287 130.121ZM62.0709 132.233C62.0709 131.509 62.2145 130.857 62.5016 130.278C62.7887 129.695 63.192 129.248 63.7115 128.938C64.2311 128.624 64.8281 128.467 65.5025 128.467C66.5006 128.467 67.3095 128.788 67.9293 129.431C68.5536 130.073 68.8909 130.925 68.941 131.987L68.9479 132.377C68.9479 133.106 68.8066 133.758 68.524 134.332C68.246 134.906 67.845 135.351 67.3209 135.665C66.8014 135.979 66.1998 136.137 65.5162 136.137C64.4726 136.137 63.6363 135.79 63.0074 135.098C62.3831 134.4 62.0709 133.473 62.0709 132.315V132.233ZM63.732 132.377C63.732 133.138 63.8893 133.735 64.2037 134.168C64.5182 134.596 64.9557 134.811 65.5162 134.811C66.0768 134.811 66.512 134.592 66.8219 134.154C67.1363 133.717 67.2936 133.076 67.2936 132.233C67.2936 131.486 67.1318 130.894 66.8082 130.456C66.4892 130.019 66.054 129.8 65.5025 129.8C64.9602 129.8 64.5296 130.016 64.2105 130.449C63.8915 130.878 63.732 131.52 63.732 132.377ZM69.9916 132.247C69.9916 131.108 70.2559 130.194 70.7846 129.506C71.3132 128.813 72.0219 128.467 72.9105 128.467C73.6944 128.467 74.3279 128.74 74.8109 129.287V125.5H76.4721V136H74.9682L74.8861 135.234C74.3894 135.836 73.7263 136.137 72.8969 136.137C72.031 136.137 71.3292 135.788 70.7914 135.091C70.2582 134.394 69.9916 133.446 69.9916 132.247ZM71.6527 132.391C71.6527 133.143 71.7963 133.73 72.0834 134.154C72.3751 134.574 72.7875 134.783 73.3207 134.783C73.9997 134.783 74.4965 134.48 74.8109 133.874V130.716C74.5056 130.123 74.0134 129.827 73.3344 129.827C72.7966 129.827 72.3819 130.041 72.0902 130.47C71.7986 130.894 71.6527 131.534 71.6527 132.391ZM82.6359 135.275C82.1483 135.85 81.4556 136.137 80.5578 136.137C79.7557 136.137 79.1473 135.902 78.7326 135.433C78.3225 134.963 78.1174 134.284 78.1174 133.396V128.604H79.7785V133.375C79.7785 134.314 80.1682 134.783 80.9475 134.783C81.7541 134.783 82.2987 134.494 82.5812 133.915V128.604H84.2424V136H82.677L82.6359 135.275ZM88.9229 134.811C89.3376 134.811 89.6816 134.69 89.9551 134.448C90.2285 134.207 90.3743 133.908 90.3926 133.553H91.958C91.9398 134.013 91.7962 134.444 91.5273 134.845C91.2585 135.241 90.8939 135.556 90.4336 135.788C89.9733 136.021 89.4766 136.137 88.9434 136.137C87.9089 136.137 87.0885 135.802 86.4824 135.132C85.8763 134.462 85.5732 133.537 85.5732 132.356V132.186C85.5732 131.06 85.874 130.16 86.4756 129.485C87.0771 128.806 87.8975 128.467 88.9365 128.467C89.8161 128.467 90.5316 128.724 91.083 129.239C91.639 129.75 91.9307 130.422 91.958 131.256H90.3926C90.3743 130.832 90.2285 130.483 89.9551 130.21C89.6862 129.937 89.3421 129.8 88.9229 129.8C88.3851 129.8 87.9704 129.996 87.6787 130.388C87.387 130.775 87.2389 131.365 87.2344 132.158V132.425C87.2344 133.227 87.3779 133.826 87.665 134.223C87.9567 134.615 88.376 134.811 88.9229 134.811ZM95.2439 126.806V128.604H96.5496V129.834H95.2439V133.963C95.2439 134.245 95.2986 134.451 95.408 134.578C95.5219 134.701 95.7225 134.763 96.0096 134.763C96.201 134.763 96.3947 134.74 96.5906 134.694V135.979C96.2124 136.084 95.8478 136.137 95.4969 136.137C94.2208 136.137 93.5828 135.433 93.5828 134.024V129.834H92.366V128.604H93.5828V126.806H95.2439ZM101.921 133.99C101.921 133.694 101.797 133.468 101.551 133.313C101.31 133.159 100.907 133.022 100.341 132.903C99.7763 132.785 99.3046 132.634 98.9264 132.452C98.0969 132.051 97.6822 131.47 97.6822 130.709C97.6822 130.071 97.9511 129.538 98.4889 129.109C99.0266 128.681 99.7102 128.467 100.54 128.467C101.424 128.467 102.137 128.686 102.679 129.123C103.226 129.561 103.5 130.128 103.5 130.825H101.838C101.838 130.506 101.72 130.242 101.483 130.032C101.246 129.818 100.932 129.711 100.54 129.711C100.175 129.711 99.8766 129.795 99.6441 129.964C99.4163 130.132 99.3023 130.358 99.3023 130.641C99.3023 130.896 99.4094 131.094 99.6236 131.235C99.8378 131.377 100.271 131.52 100.922 131.666C101.574 131.807 102.085 131.978 102.454 132.179C102.827 132.375 103.103 132.612 103.281 132.89C103.463 133.168 103.554 133.505 103.554 133.901C103.554 134.567 103.279 135.107 102.727 135.521C102.176 135.932 101.453 136.137 100.56 136.137C99.954 136.137 99.414 136.027 98.94 135.809C98.4661 135.59 98.0969 135.289 97.8326 134.906C97.5683 134.523 97.4361 134.111 97.4361 133.669H99.0494C99.0722 134.061 99.2203 134.364 99.4938 134.578C99.7672 134.788 100.129 134.893 100.581 134.893C101.018 134.893 101.351 134.811 101.579 134.646C101.807 134.478 101.921 134.259 101.921 133.99Z" fill="#66788A"/>
<mask id="mask1" mask-type="alpha" maskUnits="userSpaceOnUse" x="18" y="70" width="20" height="14">
<path fill-rule="evenodd" clip-rule="evenodd" d="M25.1134 77C26.9524 77 28.4484 75.504 28.4484 73.665C28.4484 71.826 26.9524 70.33 25.1134 70.33C23.2744 70.33 21.7784 71.826 21.7784 73.665C21.7784 75.504 23.2744 77 25.1134 77ZM18.4434 82.0025C18.4434 79.7823 22.8837 78.6675 25.1134 78.6675C27.3431 78.6675 31.7834 79.7823 31.7834 82.0025V83.67H18.4434V82.0025ZM25.1134 80.5732C23.4078 80.5732 21.4735 81.2116 20.6731 81.7643H29.5537C28.7533 81.2116 26.819 80.5732 25.1134 80.5732ZM26.5427 73.665C26.5427 72.8741 25.9043 72.2357 25.1134 72.2357C24.3225 72.2357 23.6841 72.8741 23.6841 73.665C23.6841 74.4559 24.3225 75.0943 25.1134 75.0943C25.9043 75.0943 26.5427 74.4559 26.5427 73.665ZM31.8215 78.7247C32.9268 79.5251 33.6891 80.5923 33.6891 82.0025V83.67H37.5006V82.0025C37.5006 80.0777 34.1656 78.9819 31.8215 78.7247ZM34.1656 73.665C34.1656 75.504 32.6696 77 30.8306 77C30.316 77 29.8396 76.8761 29.4013 76.6665C30.0016 75.8184 30.3541 74.7798 30.3541 73.665C30.3541 72.5501 30.0016 71.5115 29.4013 70.6635C29.8396 70.4539 30.316 70.33 30.8306 70.33C32.6696 70.33 34.1656 71.826 34.1656 73.665Z" fill="white"/>
</mask>
<g mask="url(#mask1)">
<rect x="16" y="65" width="24" height="24" fill="#66788A"/>
</g>
<path d="M56.292 72.0469V78.6982C56.292 79.7555 55.9525 80.5941 55.2734 81.2139C54.599 81.8291 53.6989 82.1367 52.5732 82.1367C51.4339 82.1367 50.5293 81.8337 49.8594 81.2275C49.1895 80.6169 48.8545 79.7715 48.8545 78.6914V72.0469H50.5771V78.7051C50.5771 79.3704 50.7458 79.8786 51.083 80.2295C51.4202 80.5804 51.917 80.7559 52.5732 80.7559C53.904 80.7559 54.5693 80.054 54.5693 78.6504V72.0469H56.292ZM62.0799 79.9902C62.0799 79.694 61.9568 79.4684 61.7107 79.3135C61.4692 79.1585 61.0659 79.0218 60.5008 78.9033C59.9357 78.7848 59.464 78.6344 59.0857 78.4521C58.2563 78.0511 57.8416 77.4701 57.8416 76.709C57.8416 76.071 58.1105 75.5378 58.6482 75.1094C59.186 74.681 59.8696 74.4668 60.699 74.4668C61.5831 74.4668 62.2964 74.6855 62.8387 75.123C63.3855 75.5605 63.659 76.1279 63.659 76.8252H61.9979C61.9979 76.5062 61.8794 76.2419 61.6424 76.0322C61.4054 75.818 61.091 75.7109 60.699 75.7109C60.3344 75.7109 60.0359 75.7952 59.8035 75.9639C59.5757 76.1325 59.4617 76.3581 59.4617 76.6406C59.4617 76.8958 59.5688 77.0941 59.783 77.2354C59.9972 77.3766 60.4301 77.5202 61.0818 77.666C61.7335 77.8073 62.2439 77.9782 62.6131 78.1787C62.9868 78.3747 63.2625 78.6117 63.4402 78.8896C63.6225 79.1676 63.7137 79.5049 63.7137 79.9014C63.7137 80.5667 63.438 81.1068 62.8865 81.5215C62.3351 81.9316 61.6128 82.1367 60.7195 82.1367C60.1134 82.1367 59.5734 82.0273 59.0994 81.8086C58.6255 81.5898 58.2563 81.2891 57.992 80.9062C57.7277 80.5234 57.5955 80.111 57.5955 79.6689H59.2088C59.2316 80.0609 59.3797 80.3639 59.6531 80.5781C59.9266 80.7878 60.2889 80.8926 60.74 80.8926C61.1775 80.8926 61.5102 80.8105 61.7381 80.6465C61.966 80.4779 62.0799 80.2591 62.0799 79.9902ZM68.3736 82.1367C67.3209 82.1367 66.4664 81.8063 65.8102 81.1455C65.1585 80.4801 64.8326 79.596 64.8326 78.4932V78.2881C64.8326 77.5498 64.9739 76.8913 65.2564 76.3125C65.5436 75.7292 65.9446 75.2757 66.4596 74.9521C66.9745 74.6286 67.5488 74.4668 68.1822 74.4668C69.1894 74.4668 69.9664 74.7881 70.5133 75.4307C71.0647 76.0732 71.3404 76.9824 71.3404 78.1582V78.8281H66.5074C66.5576 79.4388 66.7604 79.9219 67.1158 80.2773C67.4758 80.6328 67.927 80.8105 68.4693 80.8105C69.2304 80.8105 69.8502 80.5029 70.3287 79.8877L71.2242 80.7422C70.928 81.1842 70.5315 81.5283 70.0348 81.7744C69.5426 82.016 68.9889 82.1367 68.3736 82.1367ZM68.1754 75.7998C67.7197 75.7998 67.3505 75.9593 67.068 76.2783C66.79 76.5973 66.6122 77.0417 66.5348 77.6113H69.6998V77.4883C69.6633 76.9323 69.5152 76.513 69.2555 76.2305C68.9957 75.9434 68.6357 75.7998 68.1754 75.7998ZM76.4584 76.1211C76.2396 76.0846 76.0141 76.0664 75.7816 76.0664C75.0206 76.0664 74.5079 76.3581 74.2436 76.9414V82H72.5824V74.6035H74.1684L74.2094 75.4307C74.6104 74.7881 75.1664 74.4668 75.8773 74.4668C76.1143 74.4668 76.3103 74.4987 76.4652 74.5625L76.4584 76.1211ZM81.6037 79.9902C81.6037 79.694 81.4807 79.4684 81.2346 79.3135C80.993 79.1585 80.5897 79.0218 80.0246 78.9033C79.4595 78.7848 78.9878 78.6344 78.6096 78.4521C77.7801 78.0511 77.3654 77.4701 77.3654 76.709C77.3654 76.071 77.6343 75.5378 78.1721 75.1094C78.7098 74.681 79.3934 74.4668 80.2229 74.4668C81.107 74.4668 81.8202 74.6855 82.3625 75.123C82.9094 75.5605 83.1828 76.1279 83.1828 76.8252H81.5217C81.5217 76.5062 81.4032 76.2419 81.1662 76.0322C80.9292 75.818 80.6148 75.7109 80.2229 75.7109C79.8583 75.7109 79.5598 75.7952 79.3273 75.9639C79.0995 76.1325 78.9855 76.3581 78.9855 76.6406C78.9855 76.8958 79.0926 77.0941 79.3068 77.2354C79.521 77.3766 79.954 77.5202 80.6057 77.666C81.2574 77.8073 81.7678 77.9782 82.1369 78.1787C82.5106 78.3747 82.7863 78.6117 82.9641 78.8896C83.1464 79.1676 83.2375 79.5049 83.2375 79.9014C83.2375 80.5667 82.9618 81.1068 82.4104 81.5215C81.8589 81.9316 81.1366 82.1367 80.2434 82.1367C79.6372 82.1367 79.0972 82.0273 78.6232 81.8086C78.1493 81.5898 77.7801 81.2891 77.5158 80.9062C77.2515 80.5234 77.1193 80.111 77.1193 79.6689H78.7326C78.7554 80.0609 78.9035 80.3639 79.177 80.5781C79.4504 80.7878 79.8127 80.8926 80.2639 80.8926C80.7014 80.8926 81.034 80.8105 81.2619 80.6465C81.4898 80.4779 81.6037 80.2591 81.6037 79.9902Z" fill="#66788A"/>
<mask id="mask2" mask-type="alpha" maskUnits="userSpaceOnUse" x="20" y="174" width="17" height="22">
<path fill-rule="evenodd" clip-rule="evenodd" d="M34.1375 181.665H33.1847V179.759C33.1847 177.129 31.0503 174.995 28.4204 174.995C25.7905 174.995 23.6561 177.129 23.6561 179.759H25.5618C25.5618 178.178 26.8387 176.901 28.4204 176.901C30.0021 176.901 31.279 178.178 31.279 179.759V181.665H22.7033C21.6551 181.665 20.7975 182.523 20.7975 183.571V193.099C20.7975 194.147 21.6551 195.005 22.7033 195.005H34.1375C35.1857 195.005 36.0433 194.147 36.0433 193.099V183.571C36.0433 182.523 35.1857 181.665 34.1375 181.665ZM22.7033 193.099V183.571H34.1375V193.099H22.7033ZM30.3261 188.335C30.3261 189.383 29.4685 190.241 28.4204 190.241C27.3723 190.241 26.5147 189.383 26.5147 188.335C26.5147 187.287 27.3723 186.429 28.4204 186.429C29.4685 186.429 30.3261 187.287 30.3261 188.335Z" fill="white"/>
</mask>
<g mask="url(#mask2)">
<rect x="16" y="173" width="24" height="24" fill="#66788A"/>
</g>
<path d="M54.583 187.683H50.7275L49.9209 190H48.123L51.8828 180.047H53.4346L57.2012 190H55.3965L54.583 187.683ZM51.2129 186.288H54.0977L52.6553 182.159L51.2129 186.288ZM62.5242 189.275C62.0366 189.85 61.3439 190.137 60.4461 190.137C59.644 190.137 59.0356 189.902 58.6209 189.433C58.2107 188.963 58.0057 188.284 58.0057 187.396V182.604H59.6668V187.375C59.6668 188.314 60.0564 188.783 60.8357 188.783C61.6424 188.783 62.187 188.494 62.4695 187.915V182.604H64.1307V190H62.5652L62.5242 189.275ZM67.8541 180.806V182.604H69.1598V183.834H67.8541V187.963C67.8541 188.245 67.9088 188.451 68.0182 188.578C68.1321 188.701 68.3326 188.763 68.6197 188.763C68.8111 188.763 69.0048 188.74 69.2008 188.694V189.979C68.8225 190.084 68.4579 190.137 68.107 190.137C66.831 190.137 66.193 189.433 66.193 188.024V183.834H64.9762V182.604H66.193V180.806H67.8541ZM72.0219 183.41C72.5642 182.781 73.2501 182.467 74.0795 182.467C75.6563 182.467 76.4561 183.367 76.4789 185.167V190H74.8178V185.229C74.8178 184.718 74.7061 184.358 74.4828 184.148C74.2641 183.934 73.9405 183.827 73.5121 183.827C72.8467 183.827 72.35 184.123 72.0219 184.716V190H70.3607V179.5H72.0219V183.41ZM81.3713 190.137C80.3186 190.137 79.4641 189.806 78.8078 189.146C78.1561 188.48 77.8303 187.596 77.8303 186.493V186.288C77.8303 185.55 77.9715 184.891 78.2541 184.312C78.5412 183.729 78.9423 183.276 79.4572 182.952C79.9722 182.629 80.5464 182.467 81.1799 182.467C82.187 182.467 82.9641 182.788 83.5109 183.431C84.0624 184.073 84.3381 184.982 84.3381 186.158V186.828H79.5051C79.5552 187.439 79.758 187.922 80.1135 188.277C80.4735 188.633 80.9247 188.811 81.467 188.811C82.2281 188.811 82.8479 188.503 83.3264 187.888L84.2219 188.742C83.9257 189.184 83.5292 189.528 83.0324 189.774C82.5402 190.016 81.9865 190.137 81.3713 190.137ZM81.173 183.8C80.7173 183.8 80.3482 183.959 80.0656 184.278C79.7876 184.597 79.6099 185.042 79.5324 185.611H82.6975V185.488C82.661 184.932 82.5129 184.513 82.2531 184.23C81.9934 183.943 81.6333 183.8 81.173 183.8ZM87.125 182.604L87.1729 183.458C87.7197 182.797 88.4375 182.467 89.3262 182.467C90.8665 182.467 91.6504 183.349 91.6777 185.112V190H90.0166V185.208C90.0166 184.739 89.9141 184.392 89.709 184.169C89.5085 183.941 89.1781 183.827 88.7178 183.827C88.0479 183.827 87.5488 184.13 87.2207 184.736V190H85.5596V182.604H87.125ZM95.408 180.806V182.604H96.7137V183.834H95.408V187.963C95.408 188.245 95.4627 188.451 95.5721 188.578C95.686 188.701 95.8865 188.763 96.1736 188.763C96.365 188.763 96.5587 188.74 96.7547 188.694V189.979C96.3764 190.084 96.0118 190.137 95.6609 190.137C94.3849 190.137 93.7469 189.433 93.7469 188.024V183.834H92.5301V182.604H93.7469V180.806H95.408ZM99.7057 190H98.0445V182.604H99.7057V190ZM97.942 180.683C97.942 180.427 98.0217 180.215 98.1813 180.047C98.3453 179.878 98.5777 179.794 98.8785 179.794C99.1793 179.794 99.4117 179.878 99.5758 180.047C99.7398 180.215 99.8219 180.427 99.8219 180.683C99.8219 180.933 99.7398 181.143 99.5758 181.312C99.4117 181.476 99.1793 181.558 98.8785 181.558C98.5777 181.558 98.3453 181.476 98.1813 181.312C98.0217 181.143 97.942 180.933 97.942 180.683ZM104.509 188.811C104.924 188.811 105.268 188.69 105.541 188.448C105.815 188.207 105.961 187.908 105.979 187.553H107.544C107.526 188.013 107.383 188.444 107.114 188.845C106.845 189.241 106.48 189.556 106.02 189.788C105.56 190.021 105.063 190.137 104.53 190.137C103.495 190.137 102.675 189.802 102.069 189.132C101.463 188.462 101.16 187.537 101.16 186.356V186.186C101.16 185.06 101.46 184.16 102.062 183.485C102.663 182.806 103.484 182.467 104.523 182.467C105.402 182.467 106.118 182.724 106.669 183.239C107.225 183.75 107.517 184.422 107.544 185.256H105.979C105.961 184.832 105.815 184.483 105.541 184.21C105.273 183.937 104.928 183.8 104.509 183.8C103.971 183.8 103.557 183.996 103.265 184.388C102.973 184.775 102.825 185.365 102.821 186.158V186.425C102.821 187.227 102.964 187.826 103.251 188.223C103.543 188.615 103.962 188.811 104.509 188.811ZM113.168 190C113.095 189.859 113.031 189.629 112.977 189.31C112.448 189.861 111.801 190.137 111.035 190.137C110.293 190.137 109.686 189.925 109.217 189.501C108.748 189.077 108.513 188.553 108.513 187.929C108.513 187.14 108.805 186.536 109.388 186.117C109.976 185.693 110.814 185.481 111.904 185.481H112.922V184.996C112.922 184.613 112.815 184.308 112.601 184.08C112.387 183.848 112.061 183.731 111.623 183.731C111.245 183.731 110.935 183.827 110.694 184.019C110.452 184.205 110.331 184.445 110.331 184.736H108.67C108.67 184.331 108.805 183.952 109.073 183.602C109.342 183.246 109.707 182.968 110.167 182.768C110.632 182.567 111.149 182.467 111.719 182.467C112.585 182.467 113.275 182.686 113.79 183.123C114.305 183.556 114.57 184.167 114.583 184.955V188.291C114.583 188.956 114.677 189.487 114.863 189.884V190H113.168ZM111.343 188.804C111.671 188.804 111.979 188.724 112.266 188.564C112.557 188.405 112.776 188.191 112.922 187.922V186.527H112.027C111.411 186.527 110.949 186.634 110.639 186.849C110.329 187.063 110.174 187.366 110.174 187.758C110.174 188.077 110.279 188.332 110.488 188.523C110.703 188.71 110.987 188.804 111.343 188.804ZM118.354 180.806V182.604H119.66V183.834H118.354V187.963C118.354 188.245 118.409 188.451 118.519 188.578C118.632 188.701 118.833 188.763 119.12 188.763C119.312 188.763 119.505 188.74 119.701 188.694V189.979C119.323 190.084 118.958 190.137 118.607 190.137C117.331 190.137 116.693 189.433 116.693 188.024V183.834H115.477V182.604H116.693V180.806H118.354ZM122.652 190H120.991V182.604H122.652V190ZM120.888 180.683C120.888 180.427 120.968 180.215 121.128 180.047C121.292 179.878 121.524 179.794 121.825 179.794C122.126 179.794 122.358 179.878 122.522 180.047C122.686 180.215 122.768 180.427 122.768 180.683C122.768 180.933 122.686 181.143 122.522 181.312C122.358 181.476 122.126 181.558 121.825 181.558C121.524 181.558 121.292 181.476 121.128 181.312C120.968 181.143 120.888 180.933 120.888 180.683ZM124.106 186.233C124.106 185.509 124.25 184.857 124.537 184.278C124.824 183.695 125.227 183.248 125.747 182.938C126.266 182.624 126.863 182.467 127.538 182.467C128.536 182.467 129.345 182.788 129.964 183.431C130.589 184.073 130.926 184.925 130.976 185.987L130.983 186.377C130.983 187.106 130.842 187.758 130.559 188.332C130.281 188.906 129.88 189.351 129.356 189.665C128.837 189.979 128.235 190.137 127.551 190.137C126.508 190.137 125.671 189.79 125.043 189.098C124.418 188.4 124.106 187.473 124.106 186.315V186.233ZM125.767 186.377C125.767 187.138 125.924 187.735 126.239 188.168C126.553 188.596 126.991 188.811 127.551 188.811C128.112 188.811 128.547 188.592 128.857 188.154C129.171 187.717 129.329 187.076 129.329 186.233C129.329 185.486 129.167 184.894 128.843 184.456C128.524 184.019 128.089 183.8 127.538 183.8C126.995 183.8 126.565 184.016 126.246 184.449C125.927 184.878 125.767 185.52 125.767 186.377ZM133.879 182.604L133.927 183.458C134.474 182.797 135.192 182.467 136.08 182.467C137.621 182.467 138.405 183.349 138.432 185.112V190H136.771V185.208C136.771 184.739 136.668 184.392 136.463 184.169C136.263 183.941 135.932 183.827 135.472 183.827C134.802 183.827 134.303 184.13 133.975 184.736V190H132.314V182.604H133.879Z" fill="#66788A"/>
<mask id="mask3" mask-type="alpha" maskUnits="userSpaceOnUse" x="18" y="231" width="19" height="16">
<path fill-rule="evenodd" clip-rule="evenodd" d="M18.8638 234.712V231.854H31.2509V234.712H26.4866V246.146H23.6281V234.712H18.8638ZM28.3923 236.618H36.9681V239.476H34.1095V246.146H31.2509V239.476H28.3923V236.618Z" fill="white"/>
</mask>
<g mask="url(#mask3)">
<rect x="16" y="227" width="24" height="24" fill="#66788A"/>
</g>
<path d="M56.2031 235.441H53.0996V244H51.3838V235.441H48.3076V234.047H56.2031V235.441ZM59.3318 241.621L60.8357 236.604H62.6062L59.6668 245.121C59.2156 246.365 58.45 246.987 57.3699 246.987C57.1284 246.987 56.8618 246.946 56.5701 246.864V245.579L56.8846 245.6C57.3038 245.6 57.6183 245.522 57.8279 245.367C58.0421 245.217 58.2107 244.962 58.3338 244.602L58.573 243.966L55.9754 236.604H57.7664L59.3318 241.621ZM69.9937 240.377C69.9937 241.521 69.734 242.435 69.2145 243.118C68.6949 243.797 67.9977 244.137 67.1227 244.137C66.3115 244.137 65.662 243.87 65.1744 243.337V246.844H63.5133V236.604H65.0445L65.1129 237.355C65.6005 236.763 66.2636 236.467 67.1021 236.467C68.0045 236.467 68.7109 236.804 69.2213 237.479C69.7363 238.148 69.9937 239.08 69.9937 240.274V240.377ZM68.3395 240.233C68.3395 239.495 68.1913 238.91 67.8951 238.477C67.6035 238.044 67.1842 237.827 66.6373 237.827C65.9583 237.827 65.4706 238.107 65.1744 238.668V241.949C65.4752 242.523 65.9674 242.811 66.651 242.811C67.1796 242.811 67.5921 242.599 67.8883 242.175C68.1891 241.746 68.3395 241.099 68.3395 240.233ZM71.0443 240.233C71.0443 239.509 71.1879 238.857 71.475 238.278C71.7621 237.695 72.1654 237.248 72.685 236.938C73.2045 236.624 73.8015 236.467 74.476 236.467C75.474 236.467 76.2829 236.788 76.9027 237.431C77.5271 238.073 77.8643 238.925 77.9145 239.987L77.9213 240.377C77.9213 241.106 77.78 241.758 77.4975 242.332C77.2195 242.906 76.8184 243.351 76.2943 243.665C75.7748 243.979 75.1732 244.137 74.4896 244.137C73.446 244.137 72.6098 243.79 71.9809 243.098C71.3565 242.4 71.0443 241.473 71.0443 240.315V240.233ZM72.7055 240.377C72.7055 241.138 72.8627 241.735 73.1771 242.168C73.4916 242.596 73.9291 242.811 74.4896 242.811C75.0502 242.811 75.4854 242.592 75.7953 242.154C76.1098 241.717 76.267 241.076 76.267 240.233C76.267 239.486 76.1052 238.894 75.7816 238.456C75.4626 238.019 75.0274 237.8 74.476 237.8C73.9337 237.8 73.503 238.016 73.184 238.449C72.865 238.878 72.7055 239.52 72.7055 240.377ZM78.9855 240.247C78.9855 239.099 79.2544 238.183 79.7922 237.499C80.3345 236.811 81.0523 236.467 81.9455 236.467C82.7886 236.467 83.4517 236.761 83.9348 237.349L84.01 236.604H85.507V243.774C85.507 244.745 85.204 245.511 84.5979 246.071C83.9963 246.632 83.1828 246.912 82.1574 246.912C81.6151 246.912 81.0842 246.798 80.5646 246.57C80.0497 246.347 79.6577 246.053 79.3889 245.688L80.175 244.69C80.6854 245.297 81.3143 245.6 82.0617 245.6C82.6132 245.6 83.0484 245.449 83.3674 245.148C83.6864 244.852 83.8459 244.415 83.8459 243.836V243.337C83.3674 243.87 82.7294 244.137 81.9318 244.137C81.0659 244.137 80.3573 243.793 79.8059 243.104C79.259 242.416 78.9855 241.464 78.9855 240.247ZM80.6398 240.391C80.6398 241.133 80.7902 241.719 81.091 242.147C81.3964 242.571 81.8179 242.783 82.3557 242.783C83.0256 242.783 83.5223 242.496 83.8459 241.922V238.668C83.5314 238.107 83.0393 237.827 82.3693 237.827C81.8225 237.827 81.3964 238.044 81.091 238.477C80.7902 238.91 80.6398 239.548 80.6398 240.391ZM91.042 238.121C90.8232 238.085 90.5977 238.066 90.3652 238.066C89.6042 238.066 89.0915 238.358 88.8271 238.941V244H87.166V236.604H88.752L88.793 237.431C89.194 236.788 89.75 236.467 90.4609 236.467C90.6979 236.467 90.8939 236.499 91.0488 236.562L91.042 238.121ZM96.2557 244C96.1827 243.859 96.1189 243.629 96.0643 243.31C95.5356 243.861 94.8885 244.137 94.1229 244.137C93.38 244.137 92.7739 243.925 92.3045 243.501C91.8351 243.077 91.6004 242.553 91.6004 241.929C91.6004 241.14 91.8921 240.536 92.4754 240.117C93.0633 239.693 93.9018 239.481 94.991 239.481H96.0096V238.996C96.0096 238.613 95.9025 238.308 95.6883 238.08C95.4741 237.848 95.1482 237.731 94.7107 237.731C94.3325 237.731 94.0226 237.827 93.7811 238.019C93.5395 238.205 93.4188 238.445 93.4188 238.736H91.7576C91.7576 238.331 91.8921 237.952 92.1609 237.602C92.4298 237.246 92.7944 236.968 93.2547 236.768C93.7195 236.567 94.2368 236.467 94.8064 236.467C95.6723 236.467 96.3628 236.686 96.8777 237.123C97.3927 237.556 97.657 238.167 97.6707 238.955V242.291C97.6707 242.956 97.7641 243.487 97.951 243.884V244H96.2557ZM94.4305 242.804C94.7586 242.804 95.0662 242.724 95.3533 242.564C95.645 242.405 95.8637 242.191 96.0096 241.922V240.527H95.1141C94.4988 240.527 94.0363 240.634 93.7264 240.849C93.4165 241.063 93.2615 241.366 93.2615 241.758C93.2615 242.077 93.3663 242.332 93.576 242.523C93.7902 242.71 94.075 242.804 94.4305 242.804ZM105.838 240.377C105.838 241.521 105.578 242.435 105.058 243.118C104.539 243.797 103.841 244.137 102.966 244.137C102.155 244.137 101.506 243.87 101.018 243.337V246.844H99.357V236.604H100.888L100.957 237.355C101.444 236.763 102.107 236.467 102.946 236.467C103.848 236.467 104.555 236.804 105.065 237.479C105.58 238.148 105.838 239.08 105.838 240.274V240.377ZM104.183 240.233C104.183 239.495 104.035 238.91 103.739 238.477C103.447 238.044 103.028 237.827 102.481 237.827C101.802 237.827 101.314 238.107 101.018 238.668V241.949C101.319 242.523 101.811 242.811 102.495 242.811C103.023 242.811 103.436 242.599 103.732 242.175C104.033 241.746 104.183 241.099 104.183 240.233ZM108.836 237.41C109.379 236.781 110.065 236.467 110.894 236.467C112.471 236.467 113.271 237.367 113.293 239.167V244H111.632V239.229C111.632 238.718 111.521 238.358 111.297 238.148C111.079 237.934 110.755 237.827 110.327 237.827C109.661 237.827 109.164 238.123 108.836 238.716V244H107.175V233.5H108.836V237.41ZM117.516 241.621L119.02 236.604H120.79L117.851 245.121C117.4 246.365 116.634 246.987 115.554 246.987C115.312 246.987 115.046 246.946 114.754 246.864V245.579L115.069 245.6C115.488 245.6 115.802 245.522 116.012 245.367C116.226 245.217 116.395 244.962 116.518 244.602L116.757 243.966L114.159 236.604H115.95L117.516 241.621Z" fill="#66788A"/>
<mask id="mask4" mask-type="alpha" maskUnits="userSpaceOnUse" x="18" y="283" width="20" height="20">
<path fill-rule="evenodd" clip-rule="evenodd" d="M34.9075 283.522H20.1633C19.0048 283.522 18.0569 284.469 18.0569 285.628V300.372C18.0569 301.531 19.0048 302.478 20.1633 302.478H34.9075C36.0659 302.478 37.0138 301.531 37.0138 300.372V285.628C37.0138 284.469 36.0659 283.522 34.9075 283.522ZM34.9075 285.628V300.372H20.1633V285.628H34.9075ZM26.6297 296.928L29.7891 292.853L33.8543 298.266H21.2164L24.3759 294.201L26.6297 296.928Z" fill="white"/>
</mask>
<g mask="url(#mask4)">
<rect x="16" y="281" width="24" height="24" fill="#66788A"/>
</g>
<path d="M50.8369 298H49.1143V288.047H50.8369V298ZM55.7908 296.811C56.2055 296.811 56.5496 296.69 56.823 296.448C57.0965 296.207 57.2423 295.908 57.2605 295.553H58.826C58.8077 296.013 58.6642 296.444 58.3953 296.845C58.1264 297.241 57.7618 297.556 57.3016 297.788C56.8413 298.021 56.3445 298.137 55.8113 298.137C54.7768 298.137 53.9565 297.802 53.3504 297.132C52.7443 296.462 52.4412 295.537 52.4412 294.356V294.186C52.4412 293.06 52.742 292.16 53.3436 291.485C53.9451 290.806 54.7654 290.467 55.8045 290.467C56.684 290.467 57.3995 290.724 57.951 291.239C58.507 291.75 58.7986 292.422 58.826 293.256H57.2605C57.2423 292.832 57.0965 292.483 56.823 292.21C56.5542 291.937 56.2101 291.8 55.7908 291.8C55.2531 291.8 54.8383 291.996 54.5467 292.388C54.255 292.775 54.1069 293.365 54.1023 294.158V294.425C54.1023 295.227 54.2459 295.826 54.533 296.223C54.8247 296.615 55.2439 296.811 55.7908 296.811ZM59.7193 294.233C59.7193 293.509 59.8629 292.857 60.15 292.278C60.4371 291.695 60.8404 291.248 61.36 290.938C61.8795 290.624 62.4765 290.467 63.151 290.467C64.149 290.467 64.9579 290.788 65.5777 291.431C66.2021 292.073 66.5393 292.925 66.5895 293.987L66.5963 294.377C66.5963 295.106 66.455 295.758 66.1725 296.332C65.8945 296.906 65.4934 297.351 64.9693 297.665C64.4498 297.979 63.8482 298.137 63.1646 298.137C62.121 298.137 61.2848 297.79 60.6559 297.098C60.0315 296.4 59.7193 295.473 59.7193 294.315V294.233ZM61.3805 294.377C61.3805 295.138 61.5377 295.735 61.8521 296.168C62.1666 296.596 62.6041 296.811 63.1646 296.811C63.7252 296.811 64.1604 296.592 64.4703 296.154C64.7848 295.717 64.942 295.076 64.942 294.233C64.942 293.486 64.7802 292.894 64.4566 292.456C64.1376 292.019 63.7024 291.8 63.151 291.8C62.6087 291.8 62.178 292.016 61.859 292.449C61.54 292.878 61.3805 293.52 61.3805 294.377ZM69.4926 290.604L69.5404 291.458C70.0873 290.797 70.8051 290.467 71.6938 290.467C73.2341 290.467 74.018 291.349 74.0453 293.112V298H72.3842V293.208C72.3842 292.739 72.2816 292.392 72.0766 292.169C71.876 291.941 71.5456 291.827 71.0854 291.827C70.4154 291.827 69.9164 292.13 69.5883 292.736V298H67.9271V290.604H69.4926ZM79.84 295.99C79.84 295.694 79.717 295.468 79.4709 295.313C79.2294 295.159 78.826 295.022 78.2609 294.903C77.6958 294.785 77.2242 294.634 76.8459 294.452C76.0165 294.051 75.6018 293.47 75.6018 292.709C75.6018 292.071 75.8706 291.538 76.4084 291.109C76.9462 290.681 77.6298 290.467 78.4592 290.467C79.3433 290.467 80.0565 290.686 80.5988 291.123C81.1457 291.561 81.4191 292.128 81.4191 292.825H79.758C79.758 292.506 79.6395 292.242 79.4025 292.032C79.1656 291.818 78.8511 291.711 78.4592 291.711C78.0946 291.711 77.7961 291.795 77.5637 291.964C77.3358 292.132 77.2219 292.358 77.2219 292.641C77.2219 292.896 77.329 293.094 77.5432 293.235C77.7574 293.377 78.1903 293.52 78.842 293.666C79.4937 293.807 80.0041 293.978 80.3732 294.179C80.7469 294.375 81.0227 294.612 81.2004 294.89C81.3827 295.168 81.4738 295.505 81.4738 295.901C81.4738 296.567 81.1981 297.107 80.6467 297.521C80.0952 297.932 79.3729 298.137 78.4797 298.137C77.8736 298.137 77.3335 298.027 76.8596 297.809C76.3856 297.59 76.0165 297.289 75.7521 296.906C75.4878 296.523 75.3557 296.111 75.3557 295.669H76.9689C76.9917 296.061 77.1398 296.364 77.4133 296.578C77.6867 296.788 78.049 296.893 78.5002 296.893C78.9377 296.893 79.2704 296.811 79.4982 296.646C79.7261 296.478 79.84 296.259 79.84 295.99ZM86.0496 295.313C86.0496 294.853 86.1749 294.432 86.4256 294.049C86.6762 293.661 87.1707 293.203 87.909 292.675C87.5216 292.187 87.2505 291.772 87.0955 291.431C86.9451 291.089 86.8699 290.758 86.8699 290.439C86.8699 289.66 87.1069 289.045 87.5809 288.594C88.0548 288.138 88.6928 287.91 89.4949 287.91C90.2195 287.91 90.812 288.124 91.2723 288.553C91.7371 288.977 91.9695 289.503 91.9695 290.132C91.9695 290.547 91.8647 290.929 91.6551 291.28C91.4454 291.627 91.1014 291.973 90.6229 292.319L89.9461 292.812L91.867 295.081C92.145 294.534 92.284 293.926 92.284 293.256H93.7264C93.7264 294.482 93.4393 295.487 92.865 296.271L94.3279 298H92.4002L91.8396 297.337C91.1287 297.87 90.2811 298.137 89.2967 298.137C88.3123 298.137 87.5239 297.877 86.9314 297.357C86.3436 296.833 86.0496 296.152 86.0496 295.313ZM89.3445 296.811C89.9051 296.811 90.4292 296.624 90.9168 296.25L88.743 293.687L88.5311 293.837C87.9842 294.252 87.7107 294.726 87.7107 295.259C87.7107 295.719 87.8589 296.093 88.1551 296.38C88.4513 296.667 88.8478 296.811 89.3445 296.811ZM88.4285 290.398C88.4285 290.781 88.6632 291.262 89.1326 291.841L89.8914 291.321L90.1033 291.15C90.3859 290.9 90.5271 290.578 90.5271 290.187C90.5271 289.927 90.4292 289.706 90.2332 289.523C90.0372 289.337 89.7889 289.243 89.4881 289.243C89.1645 289.243 88.907 289.353 88.7156 289.571C88.5242 289.79 88.4285 290.066 88.4285 290.398ZM100.64 298H98.9174V288.047H100.64V298ZM104.117 290.604L104.165 291.376C104.685 290.77 105.396 290.467 106.298 290.467C107.287 290.467 107.964 290.845 108.328 291.602C108.866 290.845 109.623 290.467 110.598 290.467C111.414 290.467 112.02 290.692 112.416 291.144C112.817 291.595 113.022 292.26 113.031 293.14V298H111.37V293.188C111.37 292.718 111.268 292.374 111.063 292.155C110.858 291.937 110.518 291.827 110.044 291.827C109.666 291.827 109.356 291.93 109.114 292.135C108.877 292.335 108.711 292.6 108.615 292.928L108.622 298H106.961V293.133C106.938 292.262 106.494 291.827 105.628 291.827C104.963 291.827 104.491 292.098 104.213 292.641V298H102.552V290.604H104.117ZM119.106 298C119.034 297.859 118.97 297.629 118.915 297.31C118.386 297.861 117.739 298.137 116.974 298.137C116.231 298.137 115.625 297.925 115.155 297.501C114.686 297.077 114.451 296.553 114.451 295.929C114.451 295.14 114.743 294.536 115.326 294.117C115.914 293.693 116.753 293.481 117.842 293.481H118.86V292.996C118.86 292.613 118.753 292.308 118.539 292.08C118.325 291.848 117.999 291.731 117.562 291.731C117.183 291.731 116.873 291.827 116.632 292.019C116.39 292.205 116.27 292.445 116.27 292.736H114.608C114.608 292.331 114.743 291.952 115.012 291.602C115.281 291.246 115.645 290.968 116.105 290.768C116.57 290.567 117.088 290.467 117.657 290.467C118.523 290.467 119.214 290.686 119.729 291.123C120.243 291.556 120.508 292.167 120.521 292.955V296.291C120.521 296.956 120.615 297.487 120.802 297.884V298H119.106ZM117.281 296.804C117.609 296.804 117.917 296.724 118.204 296.564C118.496 296.405 118.715 296.191 118.86 295.922V294.527H117.965C117.35 294.527 116.887 294.634 116.577 294.849C116.267 295.063 116.112 295.366 116.112 295.758C116.112 296.077 116.217 296.332 116.427 296.523C116.641 296.71 116.926 296.804 117.281 296.804ZM121.921 294.247C121.921 293.099 122.19 292.183 122.727 291.499C123.27 290.811 123.987 290.467 124.881 290.467C125.724 290.467 126.387 290.761 126.87 291.349L126.945 290.604H128.442V297.774C128.442 298.745 128.139 299.511 127.533 300.071C126.931 300.632 126.118 300.912 125.093 300.912C124.55 300.912 124.019 300.798 123.5 300.57C122.985 300.347 122.593 300.053 122.324 299.688L123.11 298.69C123.621 299.297 124.249 299.6 124.997 299.6C125.548 299.6 125.984 299.449 126.303 299.148C126.622 298.852 126.781 298.415 126.781 297.836V297.337C126.303 297.87 125.665 298.137 124.867 298.137C124.001 298.137 123.292 297.793 122.741 297.104C122.194 296.416 121.921 295.464 121.921 294.247ZM123.575 294.391C123.575 295.133 123.725 295.719 124.026 296.147C124.332 296.571 124.753 296.783 125.291 296.783C125.961 296.783 126.457 296.496 126.781 295.922V292.668C126.467 292.107 125.974 291.827 125.304 291.827C124.758 291.827 124.332 292.044 124.026 292.477C123.725 292.91 123.575 293.548 123.575 294.391ZM133.362 298.137C132.309 298.137 131.455 297.806 130.798 297.146C130.147 296.48 129.821 295.596 129.821 294.493V294.288C129.821 293.55 129.962 292.891 130.245 292.312C130.532 291.729 130.933 291.276 131.448 290.952C131.963 290.629 132.537 290.467 133.171 290.467C134.178 290.467 134.955 290.788 135.502 291.431C136.053 292.073 136.329 292.982 136.329 294.158V294.828H131.496C131.546 295.439 131.749 295.922 132.104 296.277C132.464 296.633 132.915 296.811 133.458 296.811C134.219 296.811 134.838 296.503 135.317 295.888L136.213 296.742C135.916 297.184 135.52 297.528 135.023 297.774C134.531 298.016 133.977 298.137 133.362 298.137ZM133.164 291.8C132.708 291.8 132.339 291.959 132.056 292.278C131.778 292.597 131.601 293.042 131.523 293.611H134.688V293.488C134.652 292.932 134.504 292.513 134.244 292.23C133.984 291.943 133.624 291.8 133.164 291.8ZM141.72 295.99C141.72 295.694 141.597 295.468 141.351 295.313C141.109 295.159 140.706 295.022 140.141 294.903C139.576 294.785 139.104 294.634 138.726 294.452C137.897 294.051 137.482 293.47 137.482 292.709C137.482 292.071 137.751 291.538 138.288 291.109C138.826 290.681 139.51 290.467 140.339 290.467C141.223 290.467 141.937 290.686 142.479 291.123C143.026 291.561 143.299 292.128 143.299 292.825H141.638C141.638 292.506 141.52 292.242 141.283 292.032C141.046 291.818 140.731 291.711 140.339 291.711C139.975 291.711 139.676 291.795 139.444 291.964C139.216 292.132 139.102 292.358 139.102 292.641C139.102 292.896 139.209 293.094 139.423 293.235C139.637 293.377 140.07 293.52 140.722 293.666C141.374 293.807 141.884 293.978 142.253 294.179C142.627 294.375 142.903 294.612 143.08 294.89C143.263 295.168 143.354 295.505 143.354 295.901C143.354 296.567 143.078 297.107 142.527 297.521C141.975 297.932 141.253 298.137 140.36 298.137C139.754 298.137 139.214 298.027 138.74 297.809C138.266 297.59 137.897 297.289 137.632 296.906C137.368 296.523 137.236 296.111 137.236 295.669H138.849C138.872 296.061 139.02 296.364 139.293 296.578C139.567 296.788 139.929 296.893 140.38 296.893C140.818 296.893 141.15 296.811 141.378 296.646C141.606 296.478 141.72 296.259 141.72 295.99Z" fill="#66788A"/>
<defs>
<filter id="filter0_i" x="0" y="0" width="238" height="46" filterUnits="userSpaceOnUse" color-interpolation-filters="sRGB">
<feFlood flood-opacity="0" result="BackgroundImageFix"/>
<feBlend mode="normal" in="SourceGraphic" in2="BackgroundImageFix" result="shape"/>
<feColorMatrix in="SourceAlpha" type="matrix" values="0 0 0 0 0 0 0 0 0 0 0 0 0 0 0 0 0 0 127 0" result="hardAlpha"/>
<feOffset dx="3"/>
<feComposite in2="hardAlpha" operator="arithmetic" k2="-1" k3="1"/>
<feColorMatrix type="matrix" values="0 0 0 0 0.0862745 0 0 0 0 0.396078 0 0 0 0 0.847059 0 0 0 1 0"/>
<feBlend mode="normal" in2="shape" result="effect1_innerShadow"/>
</filter>
</defs>
</svg>
