<svg width="385" height="553" viewBox="0 0 385 553" fill="none" xmlns="http://www.w3.org/2000/svg">
<g filter="url(#filter0_dd)">
<rect x="4" y="3" width="377" height="545" rx="4" fill="white"/>
<rect x="3.5" y="2.5" width="378" height="546" rx="4.5" stroke="#3F3F44" stroke-opacity="0.01"/>
</g>
<g clip-path="url(#clip0)">
<path d="M240.017 530.683H236.161L235.354 533H233.557L237.316 523.047H238.868L242.635 533H240.83L240.017 530.683ZM236.646 529.288H239.531L238.089 525.159L236.646 529.288ZM247.958 532.275C247.47 532.85 246.777 533.137 245.88 533.137C245.078 533.137 244.469 532.902 244.054 532.433C243.644 531.963 243.439 531.284 243.439 530.396V525.604H245.1V530.375C245.1 531.314 245.49 531.783 246.269 531.783C247.076 531.783 247.621 531.494 247.903 530.915V525.604H249.564V533H247.999L247.958 532.275ZM250.895 529.247C250.895 528.108 251.159 527.194 251.688 526.506C252.217 525.813 252.925 525.467 253.814 525.467C254.598 525.467 255.231 525.74 255.714 526.287V522.5H257.376V533H255.872L255.79 532.234C255.293 532.836 254.63 533.137 253.8 533.137C252.935 533.137 252.233 532.788 251.695 532.091C251.162 531.394 250.895 530.446 250.895 529.247ZM252.556 529.391C252.556 530.143 252.7 530.73 252.987 531.154C253.279 531.574 253.691 531.783 254.224 531.783C254.903 531.783 255.4 531.48 255.714 530.874V527.716C255.409 527.123 254.917 526.827 254.238 526.827C253.7 526.827 253.285 527.041 252.994 527.47C252.702 527.894 252.556 528.534 252.556 529.391ZM260.826 533H259.164V525.604H260.826V533ZM259.062 523.683C259.062 523.427 259.142 523.215 259.301 523.047C259.465 522.878 259.698 522.794 259.998 522.794C260.299 522.794 260.532 522.878 260.696 523.047C260.86 523.215 260.942 523.427 260.942 523.683C260.942 523.933 260.86 524.143 260.696 524.312C260.532 524.476 260.299 524.558 259.998 524.558C259.698 524.558 259.465 524.476 259.301 524.312C259.142 524.143 259.062 523.933 259.062 523.683ZM265.848 533.137C264.795 533.137 263.941 532.806 263.284 532.146C262.633 531.48 262.307 530.596 262.307 529.493V529.288C262.307 528.55 262.448 527.891 262.731 527.312C263.018 526.729 263.419 526.276 263.934 525.952C264.449 525.629 265.023 525.467 265.656 525.467C266.664 525.467 267.441 525.788 267.987 526.431C268.539 527.073 268.815 527.982 268.815 529.158V529.828H263.982C264.032 530.439 264.235 530.922 264.59 531.277C264.95 531.633 265.401 531.811 265.944 531.811C266.705 531.811 267.324 531.503 267.803 530.888L268.698 531.742C268.402 532.184 268.006 532.528 267.509 532.774C267.017 533.016 266.463 533.137 265.848 533.137ZM265.65 526.8C265.194 526.8 264.825 526.959 264.542 527.278C264.264 527.597 264.086 528.042 264.009 528.611H267.174V528.488C267.138 527.932 266.989 527.513 266.73 527.23C266.47 526.943 266.11 526.8 265.65 526.8ZM271.602 525.604L271.649 526.458C272.196 525.797 272.914 525.467 273.803 525.467C275.343 525.467 276.127 526.349 276.154 528.112V533H274.493V528.208C274.493 527.739 274.391 527.392 274.186 527.169C273.985 526.941 273.655 526.827 273.194 526.827C272.524 526.827 272.025 527.13 271.697 527.736V533H270.036V525.604H271.602ZM280.842 531.811C281.256 531.811 281.6 531.69 281.874 531.448C282.147 531.207 282.293 530.908 282.311 530.553H283.877C283.859 531.013 283.715 531.444 283.446 531.845C283.177 532.241 282.813 532.556 282.352 532.788C281.892 533.021 281.395 533.137 280.862 533.137C279.828 533.137 279.007 532.802 278.401 532.132C277.795 531.462 277.492 530.537 277.492 529.356V529.186C277.492 528.06 277.793 527.16 278.394 526.485C278.996 525.806 279.816 525.467 280.855 525.467C281.735 525.467 282.45 525.724 283.002 526.239C283.558 526.75 283.849 527.422 283.877 528.256H282.311C282.293 527.832 282.147 527.483 281.874 527.21C281.605 526.937 281.261 526.8 280.842 526.8C280.304 526.8 279.889 526.996 279.597 527.388C279.306 527.775 279.158 528.365 279.153 529.158V529.425C279.153 530.227 279.297 530.826 279.584 531.223C279.875 531.615 280.295 531.811 280.842 531.811ZM288.338 533.137C287.286 533.137 286.431 532.806 285.775 532.146C285.123 531.48 284.797 530.596 284.797 529.493V529.288C284.797 528.55 284.939 527.891 285.221 527.312C285.508 526.729 285.909 526.276 286.424 525.952C286.939 525.629 287.514 525.467 288.147 525.467C289.154 525.467 289.931 525.788 290.478 526.431C291.03 527.073 291.305 527.982 291.305 529.158V529.828H286.472C286.522 530.439 286.725 530.922 287.081 531.277C287.441 531.633 287.892 531.811 288.434 531.811C289.195 531.811 289.815 531.503 290.294 530.888L291.189 531.742C290.893 532.184 290.496 532.528 290 532.774C289.507 533.016 288.954 533.137 288.338 533.137ZM288.14 526.8C287.685 526.8 287.315 526.959 287.033 527.278C286.755 527.597 286.577 528.042 286.5 528.611H289.665V528.488C289.628 527.932 289.48 527.513 289.22 527.23C288.961 526.943 288.601 526.8 288.14 526.8ZM296.148 533V523.047H299.087C299.967 523.047 300.746 523.243 301.425 523.635C302.109 524.027 302.637 524.583 303.011 525.303C303.385 526.023 303.571 526.848 303.571 527.777V528.276C303.571 529.22 303.382 530.049 303.004 530.765C302.63 531.48 302.095 532.032 301.398 532.419C300.705 532.806 299.91 533 299.012 533H296.148ZM297.877 524.441V531.619H299.005C299.912 531.619 300.607 531.337 301.09 530.771C301.578 530.202 301.826 529.386 301.835 528.324V527.771C301.835 526.69 301.6 525.866 301.131 525.296C300.662 524.726 299.98 524.441 299.087 524.441H297.877ZM308.341 533.137C307.288 533.137 306.434 532.806 305.777 532.146C305.126 531.48 304.8 530.596 304.8 529.493V529.288C304.8 528.55 304.941 527.891 305.224 527.312C305.511 526.729 305.912 526.276 306.427 525.952C306.942 525.629 307.516 525.467 308.149 525.467C309.157 525.467 309.934 525.788 310.48 526.431C311.032 527.073 311.308 527.982 311.308 529.158V529.828H306.475C306.525 530.439 306.728 530.922 307.083 531.277C307.443 531.633 307.894 531.811 308.437 531.811C309.198 531.811 309.817 531.503 310.296 530.888L311.191 531.742C310.895 532.184 310.499 532.528 310.002 532.774C309.51 533.016 308.956 533.137 308.341 533.137ZM308.143 526.8C307.687 526.8 307.318 526.959 307.035 527.278C306.757 527.597 306.579 528.042 306.502 528.611H309.667V528.488C309.631 527.932 309.482 527.513 309.223 527.23C308.963 526.943 308.603 526.8 308.143 526.8ZM315.065 530.895L316.631 525.604H318.346L315.783 533H314.341L311.757 525.604H313.479L315.065 530.895ZM321.106 533H319.445V525.604H321.106V533ZM319.342 523.683C319.342 523.427 319.422 523.215 319.582 523.047C319.746 522.878 319.978 522.794 320.279 522.794C320.58 522.794 320.812 522.878 320.976 523.047C321.14 523.215 321.222 523.427 321.222 523.683C321.222 523.933 321.14 524.143 320.976 524.312C320.812 524.476 320.58 524.558 320.279 524.558C319.978 524.558 319.746 524.476 319.582 524.312C319.422 524.143 319.342 523.933 319.342 523.683ZM325.91 531.811C326.324 531.811 326.668 531.69 326.942 531.448C327.215 531.207 327.361 530.908 327.379 530.553H328.945C328.926 531.013 328.783 531.444 328.514 531.845C328.245 532.241 327.881 532.556 327.42 532.788C326.96 533.021 326.463 533.137 325.93 533.137C324.896 533.137 324.075 532.802 323.469 532.132C322.863 531.462 322.56 530.537 322.56 529.356V529.186C322.56 528.06 322.861 527.16 323.462 526.485C324.064 525.806 324.884 525.467 325.923 525.467C326.803 525.467 327.518 525.724 328.07 526.239C328.626 526.75 328.917 527.422 328.945 528.256H327.379C327.361 527.832 327.215 527.483 326.942 527.21C326.673 526.937 326.329 526.8 325.91 526.8C325.372 526.8 324.957 526.996 324.665 527.388C324.374 527.775 324.226 528.365 324.221 529.158V529.425C324.221 530.227 324.365 530.826 324.652 531.223C324.943 531.615 325.363 531.811 325.91 531.811ZM333.406 533.137C332.354 533.137 331.499 532.806 330.843 532.146C330.191 531.48 329.865 530.596 329.865 529.493V529.288C329.865 528.55 330.007 527.891 330.289 527.312C330.576 526.729 330.977 526.276 331.492 525.952C332.007 525.629 332.582 525.467 333.215 525.467C334.222 525.467 334.999 525.788 335.546 526.431C336.098 527.073 336.373 527.982 336.373 529.158V529.828H331.54C331.59 530.439 331.793 530.922 332.149 531.277C332.509 531.633 332.96 531.811 333.502 531.811C334.263 531.811 334.883 531.503 335.362 530.888L336.257 531.742C335.961 532.184 335.564 532.528 335.068 532.774C334.575 533.016 334.022 533.137 333.406 533.137ZM333.208 526.8C332.752 526.8 332.383 526.959 332.101 527.278C331.823 527.597 331.645 528.042 331.568 528.611H334.733V528.488C334.696 527.932 334.548 527.513 334.288 527.23C334.029 526.943 333.668 526.8 333.208 526.8ZM341.765 530.99C341.765 530.694 341.642 530.468 341.396 530.313C341.154 530.159 340.751 530.022 340.186 529.903C339.62 529.785 339.149 529.634 338.771 529.452C337.941 529.051 337.526 528.47 337.526 527.709C337.526 527.071 337.795 526.538 338.333 526.109C338.871 525.681 339.554 525.467 340.384 525.467C341.268 525.467 341.981 525.686 342.523 526.123C343.07 526.561 343.344 527.128 343.344 527.825H341.683C341.683 527.506 341.564 527.242 341.327 527.032C341.09 526.818 340.776 526.711 340.384 526.711C340.019 526.711 339.721 526.795 339.488 526.964C339.26 527.132 339.146 527.358 339.146 527.641C339.146 527.896 339.254 528.094 339.468 528.235C339.682 528.377 340.115 528.52 340.767 528.666C341.418 528.807 341.929 528.978 342.298 529.179C342.672 529.375 342.947 529.612 343.125 529.89C343.307 530.168 343.398 530.505 343.398 530.901C343.398 531.567 343.123 532.107 342.571 532.521C342.02 532.932 341.298 533.137 340.404 533.137C339.798 533.137 339.258 533.027 338.784 532.809C338.31 532.59 337.941 532.289 337.677 531.906C337.412 531.523 337.28 531.111 337.28 530.669H338.894C338.916 531.061 339.064 531.364 339.338 531.578C339.611 531.788 339.974 531.893 340.425 531.893C340.862 531.893 341.195 531.811 341.423 531.646C341.651 531.478 341.765 531.259 341.765 530.99Z" fill="#1070CA"/>
<mask id="mask0" mask-type="alpha" maskUnits="userSpaceOnUse" x="353" y="523" width="6" height="10">
<path d="M353.706 533L358.811 528L353.706 523V533Z" fill="white"/>
</mask>
<g mask="url(#mask0)">
<rect x="343.706" y="516" width="25" height="24" fill="#1665D8"/>
</g>
<path d="M30.7412 531.619H35.2598V533H29.0117V523.047H30.7412V531.619ZM40.7947 533C40.7218 532.859 40.658 532.629 40.6033 532.31C40.0747 532.861 39.4275 533.137 38.6619 533.137C37.9191 533.137 37.313 532.925 36.8436 532.501C36.3742 532.077 36.1395 531.553 36.1395 530.929C36.1395 530.14 36.4311 529.536 37.0145 529.117C37.6023 528.693 38.4409 528.481 39.5301 528.481H40.5486V527.996C40.5486 527.613 40.4415 527.308 40.2273 527.08C40.0132 526.848 39.6873 526.731 39.2498 526.731C38.8715 526.731 38.5617 526.827 38.3201 527.019C38.0786 527.205 37.9578 527.445 37.9578 527.736H36.2967C36.2967 527.331 36.4311 526.952 36.7 526.602C36.9689 526.246 37.3335 525.968 37.7937 525.768C38.2586 525.567 38.7758 525.467 39.3455 525.467C40.2114 525.467 40.9018 525.686 41.4168 526.123C41.9318 526.556 42.1961 527.167 42.2098 527.955V531.291C42.2098 531.956 42.3032 532.487 42.49 532.884V533H40.7947ZM38.9695 531.804C39.2977 531.804 39.6053 531.724 39.8924 531.564C40.184 531.405 40.4028 531.191 40.5486 530.922V529.527H39.6531C39.0379 529.527 38.5753 529.634 38.2654 529.849C37.9555 530.063 37.8006 530.366 37.8006 530.758C37.8006 531.077 37.9054 531.332 38.115 531.523C38.3292 531.71 38.6141 531.804 38.9695 531.804ZM48.0455 530.99C48.0455 530.694 47.9225 530.468 47.6764 530.313C47.4348 530.159 47.0315 530.022 46.4664 529.903C45.9013 529.785 45.4296 529.634 45.0514 529.452C44.2219 529.051 43.8072 528.47 43.8072 527.709C43.8072 527.071 44.0761 526.538 44.6139 526.109C45.1516 525.681 45.8352 525.467 46.6646 525.467C47.5488 525.467 48.262 525.686 48.8043 526.123C49.3512 526.561 49.6246 527.128 49.6246 527.825H47.9635C47.9635 527.506 47.845 527.242 47.608 527.032C47.371 526.818 47.0566 526.711 46.6646 526.711C46.3001 526.711 46.0016 526.795 45.7691 526.964C45.5413 527.132 45.4273 527.358 45.4273 527.641C45.4273 527.896 45.5344 528.094 45.7486 528.235C45.9628 528.377 46.3958 528.52 47.0475 528.666C47.6992 528.807 48.2096 528.978 48.5787 529.179C48.9524 529.375 49.2281 529.612 49.4059 529.89C49.5882 530.168 49.6793 530.505 49.6793 530.901C49.6793 531.567 49.4036 532.107 48.8521 532.521C48.3007 532.932 47.5784 533.137 46.6852 533.137C46.079 533.137 45.539 533.027 45.065 532.809C44.5911 532.59 44.2219 532.289 43.9576 531.906C43.6933 531.523 43.5611 531.111 43.5611 530.669H45.1744C45.1972 531.061 45.3453 531.364 45.6187 531.578C45.8922 531.788 46.2545 531.893 46.7057 531.893C47.1432 531.893 47.4758 531.811 47.7037 531.646C47.9316 531.478 48.0455 531.259 48.0455 530.99ZM53.1635 523.806V525.604H54.4691V526.834H53.1635V530.963C53.1635 531.245 53.2182 531.451 53.3275 531.578C53.4415 531.701 53.642 531.763 53.9291 531.763C54.1205 531.763 54.3142 531.74 54.5102 531.694V532.979C54.1319 533.084 53.7673 533.137 53.4164 533.137C52.1404 533.137 51.5023 532.433 51.5023 531.024V526.834H50.2855V525.604H51.5023V523.806H53.1635ZM65.6484 523.97L61.6699 533H59.9268L63.8984 524.38H58.751V523.047H65.6484V523.97ZM70.1627 529.247C70.1627 528.108 70.427 527.194 70.9557 526.506C71.4843 525.813 72.193 525.467 73.0816 525.467C73.8655 525.467 74.499 525.74 74.982 526.287V522.5H76.6432V533H75.1393L75.0572 532.234C74.5605 532.836 73.8974 533.137 73.068 533.137C72.2021 533.137 71.5003 532.788 70.9625 532.091C70.4293 531.394 70.1627 530.446 70.1627 529.247ZM71.8238 529.391C71.8238 530.143 71.9674 530.73 72.2545 531.154C72.5462 531.574 72.9586 531.783 73.4918 531.783C74.1708 531.783 74.6676 531.48 74.982 530.874V527.716C74.6767 527.123 74.1845 526.827 73.5055 526.827C72.9677 526.827 72.553 527.041 72.2613 527.47C71.9697 527.894 71.8238 528.534 71.8238 529.391ZM82.7455 533C82.6726 532.859 82.6088 532.629 82.5541 532.31C82.0255 532.861 81.3783 533.137 80.6127 533.137C79.8699 533.137 79.2637 532.925 78.7943 532.501C78.3249 532.077 78.0902 531.553 78.0902 530.929C78.0902 530.14 78.3819 529.536 78.9652 529.117C79.5531 528.693 80.3917 528.481 81.4809 528.481H82.4994V527.996C82.4994 527.613 82.3923 527.308 82.1781 527.08C81.9639 526.848 81.6381 526.731 81.2006 526.731C80.8223 526.731 80.5124 526.827 80.2709 527.019C80.0294 527.205 79.9086 527.445 79.9086 527.736H78.2475C78.2475 527.331 78.3819 526.952 78.6508 526.602C78.9197 526.246 79.2842 525.968 79.7445 525.768C80.2094 525.567 80.7266 525.467 81.2963 525.467C82.1622 525.467 82.8526 525.686 83.3676 526.123C83.8826 526.556 84.1469 527.167 84.1605 527.955V531.291C84.1605 531.956 84.254 532.487 84.4408 532.884V533H82.7455ZM80.9203 531.804C81.2484 531.804 81.5561 531.724 81.8432 531.564C82.1348 531.405 82.3536 531.191 82.4994 530.922V529.527H81.6039C80.9887 529.527 80.5261 529.634 80.2162 529.849C79.9063 530.063 79.7514 530.366 79.7514 530.758C79.7514 531.077 79.8562 531.332 80.0658 531.523C80.28 531.71 80.5648 531.804 80.9203 531.804ZM88.3283 530.621L89.8322 525.604H91.6027L88.6633 534.121C88.2121 535.365 87.4465 535.987 86.3664 535.987C86.1249 535.987 85.8583 535.946 85.5666 535.864V534.579L85.8811 534.6C86.3003 534.6 86.6148 534.522 86.8244 534.367C87.0386 534.217 87.2072 533.962 87.3303 533.602L87.5695 532.966L84.9719 525.604H86.7629L88.3283 530.621ZM96.6592 530.99C96.6592 530.694 96.5361 530.468 96.29 530.313C96.0485 530.159 95.6452 530.022 95.0801 529.903C94.515 529.785 94.0433 529.634 93.665 529.452C92.8356 529.051 92.4209 528.47 92.4209 527.709C92.4209 527.071 92.6898 526.538 93.2275 526.109C93.7653 525.681 94.4489 525.467 95.2783 525.467C96.1624 525.467 96.8757 525.686 97.418 526.123C97.9648 526.561 98.2383 527.128 98.2383 527.825H96.5771C96.5771 527.506 96.4587 527.242 96.2217 527.032C95.9847 526.818 95.6702 526.711 95.2783 526.711C94.9137 526.711 94.6152 526.795 94.3828 526.964C94.1549 527.132 94.041 527.358 94.041 527.641C94.041 527.896 94.1481 528.094 94.3623 528.235C94.5765 528.377 95.0094 528.52 95.6611 528.666C96.3128 528.807 96.8232 528.978 97.1924 529.179C97.5661 529.375 97.8418 529.612 98.0195 529.89C98.2018 530.168 98.293 530.505 98.293 530.901C98.293 531.567 98.0173 532.107 97.4658 532.521C96.9144 532.932 96.1921 533.137 95.2988 533.137C94.6927 533.137 94.1527 533.027 93.6787 532.809C93.2048 532.59 92.8356 532.289 92.5713 531.906C92.307 531.523 92.1748 531.111 92.1748 530.669H93.7881C93.8109 531.061 93.959 531.364 94.2324 531.578C94.5059 531.788 94.8682 531.893 95.3193 531.893C95.7568 531.893 96.0895 531.811 96.3174 531.646C96.5452 531.478 96.6592 531.259 96.6592 530.99Z" fill="#3A3B3F"/>
<mask id="mask1" mask-type="alpha" maskUnits="userSpaceOnUse" x="110" y="523" width="6" height="10">
<path d="M110.705 533L115.811 528L110.705 523V533Z" fill="white"/>
</mask>
<g mask="url(#mask1)">
<rect x="100.705" y="516" width="25" height="24" fill="#9EA0A5"/>
</g>
<path fill-rule="evenodd" clip-rule="evenodd" d="M4 508H381V509H4V508Z" fill="#E4E7EB"/>
</g>
<path fill-rule="evenodd" clip-rule="evenodd" d="M193.533 327C260.379 327 315 272.379 315 205.533C315 137.621 260.379 83 193.533 83C125.621 83 71 137.621 71 205.533C71 272.379 125.621 327 193.533 327Z" fill="#F7D154"/>
<mask id="mask2" mask-type="alpha" maskUnits="userSpaceOnUse" x="71" y="83" width="244" height="244">
<path fill-rule="evenodd" clip-rule="evenodd" d="M193.533 327C260.379 327 315 272.379 315 205.533C315 137.621 260.379 83 193.533 83C125.621 83 71 137.621 71 205.533C71 272.379 125.621 327 193.533 327Z" fill="white"/>
</mask>
<g mask="url(#mask2)">
<path fill-rule="evenodd" clip-rule="evenodd" d="M82.3018 151.168L223.05 213.989L269.234 110C278.754 117.807 287.249 127.201 294.306 138.095C330.999 194.737 314.94 270.473 258.438 307.257C201.936 344.041 126.387 327.942 89.6942 271.3C65.5382 234.011 64.2446 188.446 82.3018 151.168Z" fill="#EC4C47"/>
<path fill-rule="evenodd" clip-rule="evenodd" d="M131 311.854L189.599 223.307V80C190.514 80.0038 191.087 80 190.771 80C259.537 80 315 135.293 315 203.5C315 271.707 259.537 327 190.771 327C169.602 327 148.924 321.342 131 311.854Z" fill="#1070CA"/>
<path fill-rule="evenodd" clip-rule="evenodd" d="M193 305C248.228 305 293 260.228 293 205C293 149.772 248.228 105 193 105C137.772 105 93 149.772 93 205C93 260.228 137.772 305 193 305Z" fill="white"/>
</g>
<g clip-path="url(#clip1)">
<path d="M94.541 399V390.469H96.9492C97.6914 390.469 98.3477 390.633 98.918 390.961C99.4883 391.289 99.9277 391.756 100.236 392.361C100.549 392.967 100.707 393.662 100.711 394.447V394.992C100.711 395.797 100.555 396.502 100.242 397.107C99.9336 397.713 99.4902 398.178 98.9121 398.502C98.3379 398.826 97.668 398.992 96.9023 399H94.541ZM95.666 391.395V398.08H96.8496C97.7168 398.08 98.3906 397.811 98.8711 397.271C99.3555 396.732 99.5977 395.965 99.5977 394.969V394.471C99.5977 393.502 99.3691 392.75 98.9121 392.215C98.459 391.676 97.8145 391.402 96.9785 391.395H95.666ZM104.877 399.117C104.018 399.117 103.318 398.836 102.779 398.273C102.24 397.707 101.971 396.951 101.971 396.006V395.807C101.971 395.178 102.09 394.617 102.328 394.125C102.57 393.629 102.906 393.242 103.336 392.965C103.77 392.684 104.238 392.543 104.742 392.543C105.566 392.543 106.207 392.814 106.664 393.357C107.121 393.9 107.35 394.678 107.35 395.689V396.141H103.055C103.07 396.766 103.252 397.271 103.6 397.658C103.951 398.041 104.396 398.232 104.936 398.232C105.318 398.232 105.643 398.154 105.908 397.998C106.174 397.842 106.406 397.635 106.605 397.377L107.268 397.893C106.736 398.709 105.939 399.117 104.877 399.117ZM104.742 393.434C104.305 393.434 103.938 393.594 103.641 393.914C103.344 394.23 103.16 394.676 103.09 395.25H106.266V395.168C106.234 394.617 106.086 394.191 105.82 393.891C105.555 393.586 105.195 393.434 104.742 393.434ZM112.301 397.318C112.301 397.025 112.189 396.799 111.967 396.639C111.748 396.475 111.363 396.334 110.812 396.217C110.266 396.1 109.83 395.959 109.506 395.795C109.186 395.631 108.947 395.436 108.791 395.209C108.639 394.982 108.562 394.713 108.562 394.4C108.562 393.881 108.781 393.441 109.219 393.082C109.66 392.723 110.223 392.543 110.906 392.543C111.625 392.543 112.207 392.729 112.652 393.1C113.102 393.471 113.326 393.945 113.326 394.523H112.236C112.236 394.227 112.109 393.971 111.855 393.756C111.605 393.541 111.289 393.434 110.906 393.434C110.512 393.434 110.203 393.52 109.98 393.691C109.758 393.863 109.646 394.088 109.646 394.365C109.646 394.627 109.75 394.824 109.957 394.957C110.164 395.09 110.537 395.217 111.076 395.338C111.619 395.459 112.059 395.604 112.395 395.771C112.73 395.939 112.979 396.143 113.139 396.381C113.303 396.615 113.385 396.902 113.385 397.242C113.385 397.809 113.158 398.264 112.705 398.607C112.252 398.947 111.664 399.117 110.941 399.117C110.434 399.117 109.984 399.027 109.594 398.848C109.203 398.668 108.896 398.418 108.674 398.098C108.455 397.773 108.346 397.424 108.346 397.049H109.43C109.449 397.412 109.594 397.701 109.863 397.916C110.137 398.127 110.496 398.232 110.941 398.232C111.352 398.232 111.68 398.15 111.926 397.986C112.176 397.818 112.301 397.596 112.301 397.318ZM116.566 396.064L115.887 396.773V399H114.803V390H115.887V395.443L116.467 394.746L118.441 392.66H119.76L117.293 395.309L120.047 399H118.775L116.566 396.064ZM122.35 391.125V392.66H123.533V393.498H122.35V397.43C122.35 397.684 122.402 397.875 122.508 398.004C122.613 398.129 122.793 398.191 123.047 398.191C123.172 398.191 123.344 398.168 123.562 398.121V399C123.277 399.078 123 399.117 122.73 399.117C122.246 399.117 121.881 398.971 121.635 398.678C121.389 398.385 121.266 397.969 121.266 397.43V393.498H120.111V392.66H121.266V391.125H122.35ZM124.4 395.771C124.4 395.15 124.521 394.592 124.764 394.096C125.01 393.6 125.35 393.217 125.783 392.947C126.221 392.678 126.719 392.543 127.277 392.543C128.141 392.543 128.838 392.842 129.369 393.439C129.904 394.037 130.172 394.832 130.172 395.824V395.9C130.172 396.518 130.053 397.072 129.814 397.564C129.58 398.053 129.242 398.434 128.801 398.707C128.363 398.98 127.859 399.117 127.289 399.117C126.43 399.117 125.732 398.818 125.197 398.221C124.666 397.623 124.4 396.832 124.4 395.848V395.771ZM125.49 395.9C125.49 396.604 125.652 397.168 125.977 397.594C126.305 398.02 126.742 398.232 127.289 398.232C127.84 398.232 128.277 398.018 128.602 397.588C128.926 397.154 129.088 396.549 129.088 395.771C129.088 395.076 128.922 394.514 128.59 394.084C128.262 393.65 127.824 393.434 127.277 393.434C126.742 393.434 126.311 393.646 125.982 394.072C125.654 394.498 125.49 395.107 125.49 395.9ZM136.887 395.9C136.887 396.865 136.666 397.643 136.225 398.232C135.783 398.822 135.186 399.117 134.432 399.117C133.662 399.117 133.057 398.873 132.615 398.385V401.438H131.531V392.66H132.521L132.574 393.363C133.016 392.816 133.629 392.543 134.414 392.543C135.176 392.543 135.777 392.83 136.219 393.404C136.664 393.979 136.887 394.777 136.887 395.801V395.9ZM135.803 395.777C135.803 395.062 135.65 394.498 135.346 394.084C135.041 393.67 134.623 393.463 134.092 393.463C133.436 393.463 132.943 393.754 132.615 394.336V397.365C132.939 397.943 133.436 398.232 134.104 398.232C134.623 398.232 135.035 398.027 135.34 397.617C135.648 397.203 135.803 396.59 135.803 395.777Z" fill="#9EA0A5"/>
<path d="M102.249 416.284V419.13H101.824C99.8979 419.158 98.3592 419.687 97.2075 420.716C96.0558 421.745 95.3714 423.203 95.1543 425.091C96.2588 423.93 97.6701 423.35 99.3882 423.35C101.21 423.35 102.645 423.992 103.693 425.275C104.75 426.559 105.279 428.216 105.279 430.246C105.279 432.341 104.66 434.041 103.424 435.343C102.197 436.637 100.582 437.283 98.5811 437.283C96.5231 437.283 94.8522 436.523 93.5684 435.003C92.2939 433.484 91.6567 431.492 91.6567 429.028V427.853C91.6567 424.237 92.5347 421.405 94.2905 419.356C96.0558 417.308 98.5905 416.284 101.895 416.284H102.249ZM98.5527 426.125C97.7975 426.125 97.1037 426.337 96.4712 426.762C95.8481 427.187 95.3903 427.753 95.0977 428.461V429.509C95.0977 431.039 95.4186 432.256 96.0605 433.163C96.7025 434.059 97.5332 434.508 98.5527 434.508C99.5723 434.508 100.379 434.125 100.974 433.361C101.569 432.596 101.866 431.591 101.866 430.345C101.866 429.099 101.564 428.084 100.96 427.3C100.356 426.517 99.5534 426.125 98.5527 426.125ZM111.763 425.12H113.859C114.916 425.11 115.752 424.836 116.365 424.298C116.988 423.76 117.3 422.981 117.3 421.962C117.3 420.98 117.04 420.22 116.521 419.682C116.011 419.135 115.228 418.861 114.17 418.861C113.245 418.861 112.485 419.13 111.891 419.668C111.296 420.197 110.999 420.89 110.999 421.75H107.558C107.558 420.692 107.836 419.729 108.393 418.861C108.96 417.992 109.743 417.317 110.744 416.836C111.754 416.345 112.882 416.1 114.128 416.1C116.186 416.1 117.8 416.619 118.971 417.657C120.151 418.686 120.741 420.121 120.741 421.962C120.741 422.887 120.443 423.76 119.849 424.582C119.263 425.393 118.503 426.007 117.569 426.422C118.702 426.809 119.561 427.418 120.146 428.249C120.741 429.08 121.038 430.071 121.038 431.223C121.038 433.073 120.401 434.546 119.126 435.641C117.862 436.736 116.195 437.283 114.128 437.283C112.146 437.283 110.522 436.755 109.257 435.697C107.992 434.64 107.359 433.233 107.359 431.478H110.8C110.8 432.384 111.102 433.12 111.707 433.687C112.32 434.253 113.141 434.536 114.17 434.536C115.237 434.536 116.077 434.253 116.691 433.687C117.305 433.12 117.611 432.299 117.611 431.223C117.611 430.137 117.29 429.302 116.648 428.716C116.007 428.131 115.053 427.838 113.788 427.838H111.763V425.12ZM123.883 420.348C123.883 419.102 124.285 418.082 125.087 417.289C125.889 416.487 126.942 416.085 128.245 416.085C129.566 416.085 130.624 416.487 131.417 417.289C132.219 418.082 132.62 419.125 132.62 420.418V421.438C132.62 422.675 132.219 423.689 131.417 424.482C130.624 425.275 129.576 425.672 128.273 425.672C126.999 425.672 125.946 425.285 125.115 424.511C124.294 423.727 123.883 422.675 123.883 421.353V420.348ZM126.291 421.438C126.291 422.089 126.47 422.618 126.829 423.024C127.197 423.42 127.678 423.619 128.273 423.619C128.858 423.619 129.33 423.42 129.689 423.024C130.048 422.618 130.227 422.07 130.227 421.381V420.348C130.227 419.696 130.043 419.168 129.675 418.762C129.316 418.356 128.839 418.153 128.245 418.153C127.65 418.153 127.173 418.361 126.815 418.776C126.465 419.182 126.291 419.72 126.291 420.39V421.438ZM133.795 431.945C133.795 430.68 134.206 429.656 135.027 428.872C135.849 428.089 136.897 427.697 138.171 427.697C139.455 427.697 140.503 428.089 141.315 428.872C142.136 429.656 142.546 430.713 142.546 432.044V433.049C142.546 434.277 142.15 435.291 141.357 436.094C140.573 436.887 139.521 437.283 138.199 437.283C136.878 437.283 135.811 436.891 134.999 436.108C134.197 435.315 133.795 434.272 133.795 432.979V431.945ZM136.203 433.049C136.203 433.691 136.387 434.22 136.755 434.635C137.133 435.041 137.614 435.244 138.199 435.244C138.803 435.244 139.275 435.051 139.615 434.664C139.965 434.267 140.139 433.715 140.139 433.007V431.945C140.139 431.284 139.955 430.755 139.587 430.359C139.219 429.962 138.747 429.764 138.171 429.764C137.586 429.764 137.109 429.962 136.741 430.359C136.382 430.755 136.203 431.303 136.203 432.001V433.049ZM128.981 435.457L127.211 434.437L137.279 418.323L139.049 419.342L128.981 435.457Z" fill="#1070CA"/>
</g>
<g clip-path="url(#clip2)">
<path d="M182.902 391.395H180.16V399H179.041V391.395H176.305V390.469H182.902V391.395ZM187.244 399C187.182 398.875 187.131 398.652 187.092 398.332C186.588 398.855 185.986 399.117 185.287 399.117C184.662 399.117 184.148 398.941 183.746 398.59C183.348 398.234 183.148 397.785 183.148 397.242C183.148 396.582 183.398 396.07 183.898 395.707C184.402 395.34 185.109 395.156 186.02 395.156H187.074V394.658C187.074 394.279 186.961 393.979 186.734 393.756C186.508 393.529 186.174 393.416 185.732 393.416C185.346 393.416 185.021 393.514 184.76 393.709C184.498 393.904 184.367 394.141 184.367 394.418H183.277C183.277 394.102 183.389 393.797 183.611 393.504C183.838 393.207 184.143 392.973 184.525 392.801C184.912 392.629 185.336 392.543 185.797 392.543C186.527 392.543 187.1 392.727 187.514 393.094C187.928 393.457 188.143 393.959 188.158 394.6V397.518C188.158 398.1 188.232 398.562 188.381 398.906V399H187.244ZM185.445 398.174C185.785 398.174 186.107 398.086 186.412 397.91C186.717 397.734 186.938 397.506 187.074 397.225V395.924H186.225C184.896 395.924 184.232 396.312 184.232 397.09C184.232 397.43 184.346 397.695 184.572 397.887C184.799 398.078 185.09 398.174 185.445 398.174ZM195.225 395.9C195.225 396.869 195.002 397.648 194.557 398.238C194.111 398.824 193.514 399.117 192.764 399.117C191.963 399.117 191.344 398.834 190.906 398.268L190.854 399H189.857V390H190.941V393.357C191.379 392.814 191.982 392.543 192.752 392.543C193.521 392.543 194.125 392.834 194.562 393.416C195.004 393.998 195.225 394.795 195.225 395.807V395.9ZM194.141 395.777C194.141 395.039 193.998 394.469 193.713 394.066C193.428 393.664 193.018 393.463 192.482 393.463C191.768 393.463 191.254 393.795 190.941 394.459V397.201C191.273 397.865 191.791 398.197 192.494 398.197C193.014 398.197 193.418 397.996 193.707 397.594C193.996 397.191 194.141 396.586 194.141 395.777ZM197.773 399H196.689V390H197.773V399ZM202.145 399.117C201.285 399.117 200.586 398.836 200.047 398.273C199.508 397.707 199.238 396.951 199.238 396.006V395.807C199.238 395.178 199.357 394.617 199.596 394.125C199.838 393.629 200.174 393.242 200.604 392.965C201.037 392.684 201.506 392.543 202.01 392.543C202.834 392.543 203.475 392.814 203.932 393.357C204.389 393.9 204.617 394.678 204.617 395.689V396.141H200.322C200.338 396.766 200.52 397.271 200.867 397.658C201.219 398.041 201.664 398.232 202.203 398.232C202.586 398.232 202.91 398.154 203.176 397.998C203.441 397.842 203.674 397.635 203.873 397.377L204.535 397.893C204.004 398.709 203.207 399.117 202.145 399.117ZM202.01 393.434C201.572 393.434 201.205 393.594 200.908 393.914C200.611 394.23 200.428 394.676 200.357 395.25H203.533V395.168C203.502 394.617 203.354 394.191 203.088 393.891C202.822 393.586 202.463 393.434 202.01 393.434ZM207.348 391.125V392.66H208.531V393.498H207.348V397.43C207.348 397.684 207.4 397.875 207.506 398.004C207.611 398.129 207.791 398.191 208.045 398.191C208.17 398.191 208.342 398.168 208.561 398.121V399C208.275 399.078 207.998 399.117 207.729 399.117C207.244 399.117 206.879 398.971 206.633 398.678C206.387 398.385 206.264 397.969 206.264 397.43V393.498H205.109V392.66H206.264V391.125H207.348Z" fill="#9EA0A5"/>
<path d="M177.861 437H174.434V420.447L169.379 422.174V419.271L177.422 416.312H177.861V437ZM185.705 426.776L186.823 416.383H197.897V419.356H189.684L189.117 424.284C190.071 423.737 191.147 423.463 192.346 423.463C194.309 423.463 195.834 424.091 196.919 425.346C198.015 426.602 198.562 428.292 198.562 430.416C198.562 432.511 197.958 434.182 196.75 435.428C195.541 436.665 193.884 437.283 191.779 437.283C189.891 437.283 188.324 436.75 187.078 435.683C185.842 434.607 185.171 433.191 185.067 431.435H188.395C188.527 432.436 188.886 433.205 189.471 433.743C190.057 434.272 190.821 434.536 191.765 434.536C192.822 434.536 193.644 434.159 194.229 433.403C194.824 432.648 195.121 431.619 195.121 430.316C195.121 429.061 194.795 428.07 194.144 427.343C193.493 426.606 192.596 426.238 191.454 426.238C190.831 426.238 190.302 426.323 189.868 426.493C189.433 426.654 188.961 426.975 188.452 427.456L185.705 426.776ZM200.883 420.348C200.883 419.102 201.285 418.082 202.087 417.289C202.889 416.487 203.942 416.085 205.245 416.085C206.566 416.085 207.624 416.487 208.417 417.289C209.219 418.082 209.62 419.125 209.62 420.418V421.438C209.62 422.675 209.219 423.689 208.417 424.482C207.624 425.275 206.576 425.672 205.273 425.672C203.999 425.672 202.946 425.285 202.115 424.511C201.294 423.727 200.883 422.675 200.883 421.353V420.348ZM203.291 421.438C203.291 422.089 203.47 422.618 203.829 423.024C204.197 423.42 204.678 423.619 205.273 423.619C205.858 423.619 206.33 423.42 206.689 423.024C207.048 422.618 207.227 422.07 207.227 421.381V420.348C207.227 419.696 207.043 419.168 206.675 418.762C206.316 418.356 205.839 418.153 205.245 418.153C204.65 418.153 204.173 418.361 203.815 418.776C203.465 419.182 203.291 419.72 203.291 420.39V421.438ZM210.795 431.945C210.795 430.68 211.206 429.656 212.027 428.872C212.849 428.089 213.897 427.697 215.171 427.697C216.455 427.697 217.503 428.089 218.315 428.872C219.136 429.656 219.546 430.713 219.546 432.044V433.049C219.546 434.277 219.15 435.291 218.357 436.094C217.573 436.887 216.521 437.283 215.199 437.283C213.878 437.283 212.811 436.891 211.999 436.108C211.197 435.315 210.795 434.272 210.795 432.979V431.945ZM213.203 433.049C213.203 433.691 213.387 434.22 213.755 434.635C214.133 435.041 214.614 435.244 215.199 435.244C215.803 435.244 216.275 435.051 216.615 434.664C216.965 434.267 217.139 433.715 217.139 433.007V431.945C217.139 431.284 216.955 430.755 216.587 430.359C216.219 429.962 215.747 429.764 215.171 429.764C214.586 429.764 214.109 429.962 213.741 430.359C213.382 430.755 213.203 431.303 213.203 432.001V433.049ZM205.981 435.457L204.211 434.437L214.279 418.323L216.049 419.342L205.981 435.457Z" fill="#F7D154"/>
</g>
<g clip-path="url(#clip3)">
<path d="M253.814 390.469L256.604 397.43L259.393 390.469H260.852V399H259.727V395.678L259.832 392.092L257.031 399H256.17L253.375 392.109L253.486 395.678V399H252.361V390.469H253.814ZM262.381 395.771C262.381 395.15 262.502 394.592 262.744 394.096C262.99 393.6 263.33 393.217 263.764 392.947C264.201 392.678 264.699 392.543 265.258 392.543C266.121 392.543 266.818 392.842 267.35 393.439C267.885 394.037 268.152 394.832 268.152 395.824V395.9C268.152 396.518 268.033 397.072 267.795 397.564C267.561 398.053 267.223 398.434 266.781 398.707C266.344 398.98 265.84 399.117 265.27 399.117C264.41 399.117 263.713 398.818 263.178 398.221C262.646 397.623 262.381 396.832 262.381 395.848V395.771ZM263.471 395.9C263.471 396.604 263.633 397.168 263.957 397.594C264.285 398.02 264.723 398.232 265.27 398.232C265.82 398.232 266.258 398.018 266.582 397.588C266.906 397.154 267.068 396.549 267.068 395.771C267.068 395.076 266.902 394.514 266.57 394.084C266.242 393.65 265.805 393.434 265.258 393.434C264.723 393.434 264.291 393.646 263.963 394.072C263.635 394.498 263.471 395.107 263.471 395.9ZM274.879 395.9C274.879 396.869 274.656 397.648 274.211 398.238C273.766 398.824 273.168 399.117 272.418 399.117C271.617 399.117 270.998 398.834 270.561 398.268L270.508 399H269.512V390H270.596V393.357C271.033 392.814 271.637 392.543 272.406 392.543C273.176 392.543 273.779 392.834 274.217 393.416C274.658 393.998 274.879 394.795 274.879 395.807V395.9ZM273.795 395.777C273.795 395.039 273.652 394.469 273.367 394.066C273.082 393.664 272.672 393.463 272.137 393.463C271.422 393.463 270.908 393.795 270.596 394.459V397.201C270.928 397.865 271.445 398.197 272.148 398.197C272.668 398.197 273.072 397.996 273.361 397.594C273.65 397.191 273.795 396.586 273.795 395.777ZM277.428 399H276.344V392.66H277.428V399ZM276.256 390.979C276.256 390.803 276.309 390.654 276.414 390.533C276.523 390.412 276.684 390.352 276.895 390.352C277.105 390.352 277.266 390.412 277.375 390.533C277.484 390.654 277.539 390.803 277.539 390.979C277.539 391.154 277.484 391.301 277.375 391.418C277.266 391.535 277.105 391.594 276.895 391.594C276.684 391.594 276.523 391.535 276.414 391.418C276.309 391.301 276.256 391.154 276.256 390.979ZM280.346 399H279.262V390H280.346V399ZM284.717 399.117C283.857 399.117 283.158 398.836 282.619 398.273C282.08 397.707 281.811 396.951 281.811 396.006V395.807C281.811 395.178 281.93 394.617 282.168 394.125C282.41 393.629 282.746 393.242 283.176 392.965C283.609 392.684 284.078 392.543 284.582 392.543C285.406 392.543 286.047 392.814 286.504 393.357C286.961 393.9 287.189 394.678 287.189 395.689V396.141H282.895C282.91 396.766 283.092 397.271 283.439 397.658C283.791 398.041 284.236 398.232 284.775 398.232C285.158 398.232 285.482 398.154 285.748 397.998C286.014 397.842 286.246 397.635 286.445 397.377L287.107 397.893C286.576 398.709 285.779 399.117 284.717 399.117ZM284.582 393.434C284.145 393.434 283.777 393.594 283.48 393.914C283.184 394.23 283 394.676 282.93 395.25H286.105V395.168C286.074 394.617 285.926 394.191 285.66 393.891C285.395 393.586 285.035 393.434 284.582 393.434Z" fill="#9EA0A5"/>
<path d="M259.406 437H245.543V434.635L252.411 427.145C253.402 426.04 254.106 425.12 254.521 424.383C254.946 423.638 255.158 422.892 255.158 422.146C255.158 421.164 254.88 420.371 254.323 419.767C253.775 419.163 253.034 418.861 252.1 418.861C250.986 418.861 250.122 419.201 249.508 419.88C248.895 420.56 248.588 421.49 248.588 422.67H245.147C245.147 421.414 245.43 420.286 245.997 419.286C246.572 418.276 247.389 417.492 248.446 416.935C249.513 416.378 250.74 416.1 252.128 416.1C254.129 416.1 255.706 416.605 256.857 417.615C258.019 418.615 258.599 420.003 258.599 421.778C258.599 422.807 258.306 423.888 257.721 425.021C257.145 426.144 256.197 427.423 254.875 428.858L249.834 434.253H259.406V437ZM275.647 437H261.784V434.635L268.652 427.145C269.643 426.04 270.346 425.12 270.762 424.383C271.187 423.638 271.399 422.892 271.399 422.146C271.399 421.164 271.12 420.371 270.564 419.767C270.016 419.163 269.275 418.861 268.34 418.861C267.226 418.861 266.363 419.201 265.749 419.88C265.135 420.56 264.829 421.49 264.829 422.67H261.388C261.388 421.414 261.671 420.286 262.237 419.286C262.813 418.276 263.63 417.492 264.687 416.935C265.754 416.378 266.981 416.1 268.369 416.1C270.37 416.1 271.946 416.605 273.098 417.615C274.259 418.615 274.84 420.003 274.84 421.778C274.84 422.807 274.547 423.888 273.962 425.021C273.386 426.144 272.437 427.423 271.116 428.858L266.075 434.253H275.647V437ZM277.883 420.348C277.883 419.102 278.285 418.082 279.087 417.289C279.889 416.487 280.942 416.085 282.245 416.085C283.566 416.085 284.624 416.487 285.417 417.289C286.219 418.082 286.62 419.125 286.62 420.418V421.438C286.62 422.675 286.219 423.689 285.417 424.482C284.624 425.275 283.576 425.672 282.273 425.672C280.999 425.672 279.946 425.285 279.115 424.511C278.294 423.727 277.883 422.675 277.883 421.353V420.348ZM280.291 421.438C280.291 422.089 280.47 422.618 280.829 423.024C281.197 423.42 281.678 423.619 282.273 423.619C282.858 423.619 283.33 423.42 283.689 423.024C284.048 422.618 284.227 422.07 284.227 421.381V420.348C284.227 419.696 284.043 419.168 283.675 418.762C283.316 418.356 282.839 418.153 282.245 418.153C281.65 418.153 281.173 418.361 280.815 418.776C280.465 419.182 280.291 419.72 280.291 420.39V421.438ZM287.795 431.945C287.795 430.68 288.206 429.656 289.027 428.872C289.849 428.089 290.897 427.697 292.171 427.697C293.455 427.697 294.503 428.089 295.315 428.872C296.136 429.656 296.546 430.713 296.546 432.044V433.049C296.546 434.277 296.15 435.291 295.357 436.094C294.573 436.887 293.521 437.283 292.199 437.283C290.878 437.283 289.811 436.891 288.999 436.108C288.197 435.315 287.795 434.272 287.795 432.979V431.945ZM290.203 433.049C290.203 433.691 290.387 434.22 290.755 434.635C291.133 435.041 291.614 435.244 292.199 435.244C292.803 435.244 293.275 435.051 293.615 434.664C293.965 434.267 294.139 433.715 294.139 433.007V431.945C294.139 431.284 293.955 430.755 293.587 430.359C293.219 429.962 292.747 429.764 292.171 429.764C291.586 429.764 291.109 429.962 290.741 430.359C290.382 430.755 290.203 431.303 290.203 432.001V433.049ZM282.981 435.457L281.211 434.437L291.279 418.323L293.049 419.342L282.981 435.457Z" fill="#EC4C47"/>
</g>
<path fill-rule="evenodd" clip-rule="evenodd" d="M127.833 354C128.435 354 128.947 354.207 129.368 354.62C129.789 355.033 130 355.535 130 356.125V368.875C130 369.465 129.789 369.967 129.368 370.38C128.947 370.793 128.435 371 127.833 371H106.167C105.565 371 105.053 370.793 104.632 370.38C104.211 369.967 104 369.465 104 368.875V356.125C104 355.535 104.211 355.033 104.632 354.62C105.053 354.207 105.565 354 106.167 354H127.833ZM127.725 369C127.786 369 127.847 368.97 127.908 368.91C127.969 368.85 128 368.789 128 368.729V356.271C128 356.211 127.969 356.15 127.908 356.09C127.847 356.03 127.786 356 127.725 356H106.275C106.214 356 106.153 356.03 106.092 356.09C106.031 356.15 106 356.211 106 356.271V368.729C106 368.789 106.031 368.85 106.092 368.91C106.153 368.97 106.214 369 106.275 369H127.725ZM124.69 376.688C124.897 376.479 125 376.226 125 375.929C125 375.631 124.897 375.378 124.69 375.17C124.484 374.961 124.233 374.857 123.938 374.857H119.555L118.758 372.357C118.669 372.119 118.492 372 118.227 372H114.773C114.508 372 114.331 372.119 114.242 372.357L113.445 374.857H109.062C108.767 374.857 108.516 374.961 108.31 375.17C108.103 375.378 108 375.631 108 375.929C108 376.226 108.103 376.479 108.31 376.688C108.516 376.896 108.767 377 109.062 377H123.938C124.233 377 124.484 376.896 124.69 376.688Z" fill="#A6B1BB"/>
<path fill-rule="evenodd" clip-rule="evenodd" d="M203 353.156V371.844C203 372.443 202.792 372.952 202.375 373.371C201.958 373.79 201.452 374 200.857 374H185.143C184.548 374 184.042 373.79 183.625 373.371C183.208 372.952 183 372.443 183 371.844V353.156C183 352.557 183.208 352.048 183.625 351.629C184.042 351.21 184.548 351 185.143 351H200.857C201.452 351 201.958 351.21 202.375 351.629C202.792 352.048 203 352.557 203 353.156ZM195 369.5C195 369.906 194.852 370.258 194.555 370.555C194.258 370.852 193.906 371 193.5 371C193.094 371 192.742 370.852 192.445 370.555C192.148 370.258 192 369.891 192 369.453C192 369.016 192.141 368.664 192.422 368.398C192.703 368.133 193.055 368 193.477 368C193.898 368 194.258 368.148 194.555 368.445C194.852 368.742 195 369.094 195 369.5ZM201 353.274V371.726C201 371.787 200.97 371.848 200.909 371.909C200.848 371.97 200.788 372 200.727 372H185.273C185.212 372 185.152 371.97 185.091 371.909C185.03 371.848 185 371.787 185 371.726V353.274C185 353.213 185.03 353.152 185.091 353.091C185.152 353.03 185.212 353 185.273 353H200.727C200.788 353 200.848 353.03 200.909 353.091C200.97 353.152 201 353.213 201 353.274Z" fill="#A6B1BB"/>
<path fill-rule="evenodd" clip-rule="evenodd" d="M277 353.156V371.844C277 372.443 276.796 372.952 276.387 373.371C275.979 373.79 275.483 374 274.9 374H265.1C264.517 374 264.021 373.79 263.613 373.371C263.204 372.952 263 372.443 263 371.844V353.156C263 352.557 263.204 352.048 263.613 351.629C264.021 351.21 264.517 351 265.1 351H274.9C275.483 351 275.979 351.21 276.387 351.629C276.796 352.048 277 352.557 277 353.156ZM272 369.5C272 369.906 271.852 370.258 271.555 370.555C271.258 370.852 270.906 371 270.5 371C270.094 371 269.742 370.852 269.445 370.555C269.148 370.258 269 369.906 269 369.5C269 369.094 269.148 368.742 269.445 368.445C269.742 368.148 270.094 368 270.5 368C270.906 368 271.258 368.148 271.555 368.445C271.852 368.742 272 369.094 272 369.5ZM275 353.274V371.726C275 371.787 274.97 371.848 274.911 371.909C274.851 371.97 274.792 372 274.732 372H265.268C265.208 372 265.149 371.97 265.089 371.909C265.03 371.848 265 371.787 265 371.726V353.274C265 353.213 265.03 353.152 265.089 353.091C265.149 353.03 265.208 353 265.268 353H274.732C274.792 353 274.851 353.03 274.911 353.091C274.97 353.152 275 353.213 275 353.274Z" fill="#A6B1BB"/>
<rect x="4" y="58" width="369" height="1" fill="#E4E7EB"/>
<path d="M37.4766 24.625V32.2266C37.4766 33.4349 37.0885 34.3932 36.3125 35.1016C35.5417 35.8047 34.513 36.1562 33.2266 36.1562C31.9245 36.1562 30.8906 35.8099 30.125 35.1172C29.3594 34.4193 28.9766 33.4531 28.9766 32.2188V24.625H30.9453V32.2344C30.9453 32.9948 31.138 33.5755 31.5234 33.9766C31.9089 34.3776 32.4766 34.5781 33.2266 34.5781C34.7474 34.5781 35.5078 33.776 35.5078 32.1719V24.625H37.4766ZM44.0984 33.7031C44.0984 33.3646 43.9578 33.1068 43.6766 32.9297C43.4005 32.7526 42.9396 32.5964 42.2937 32.4609C41.6479 32.3255 41.1089 32.1536 40.6766 31.9453C39.7286 31.487 39.2547 30.8229 39.2547 29.9531C39.2547 29.224 39.562 28.6146 40.1766 28.125C40.7911 27.6354 41.5724 27.3906 42.5203 27.3906C43.5307 27.3906 44.3458 27.6406 44.9656 28.1406C45.5906 28.6406 45.9031 29.2891 45.9031 30.0859H44.0047C44.0047 29.7214 43.8693 29.4193 43.5984 29.1797C43.3276 28.9349 42.9682 28.8125 42.5203 28.8125C42.1036 28.8125 41.7625 28.9089 41.4969 29.1016C41.2365 29.2943 41.1062 29.5521 41.1062 29.875C41.1062 30.1667 41.2286 30.3932 41.4734 30.5547C41.7182 30.7161 42.213 30.8802 42.9578 31.0469C43.7026 31.2083 44.2859 31.4036 44.7078 31.6328C45.1349 31.8568 45.45 32.1276 45.6531 32.4453C45.8615 32.763 45.9656 33.1484 45.9656 33.6016C45.9656 34.362 45.6505 34.9792 45.0203 35.4531C44.3901 35.9219 43.5646 36.1562 42.5437 36.1562C41.851 36.1562 41.2339 36.0312 40.6922 35.7812C40.1505 35.5312 39.7286 35.1875 39.4266 34.75C39.1245 34.3125 38.9734 33.8411 38.9734 33.3359H40.8172C40.8432 33.7839 41.0125 34.1302 41.325 34.375C41.6375 34.6146 42.0516 34.7344 42.5672 34.7344C43.0672 34.7344 43.4474 34.6406 43.7078 34.4531C43.9682 34.2604 44.0984 34.0104 44.0984 33.7031ZM51.2984 36.1562C50.0953 36.1562 49.1187 35.7786 48.3687 35.0234C47.624 34.263 47.2516 33.2526 47.2516 31.9922V31.7578C47.2516 30.9141 47.413 30.1615 47.7359 29.5C48.0641 28.8333 48.5224 28.3151 49.1109 27.9453C49.6995 27.5755 50.3557 27.3906 51.0797 27.3906C52.2307 27.3906 53.1187 27.7578 53.7437 28.4922C54.374 29.2266 54.6891 30.2656 54.6891 31.6094V32.375H49.1656C49.2229 33.0729 49.4547 33.625 49.8609 34.0312C50.2724 34.4375 50.788 34.6406 51.4078 34.6406C52.2776 34.6406 52.9859 34.2891 53.5328 33.5859L54.5562 34.5625C54.2177 35.0677 53.7646 35.4609 53.1969 35.7422C52.6344 36.0182 52.0016 36.1562 51.2984 36.1562ZM51.0719 28.9141C50.551 28.9141 50.1292 29.0964 49.8062 29.4609C49.4885 29.8255 49.2854 30.3333 49.1969 30.9844H52.8141V30.8438C52.7724 30.2083 52.6031 29.7292 52.3062 29.4062C52.0094 29.0781 51.5979 28.9141 51.0719 28.9141ZM60.5453 29.2812C60.2953 29.2396 60.0375 29.2188 59.7719 29.2188C58.9021 29.2188 58.3161 29.5521 58.0141 30.2188V36H56.1156V27.5469H57.9281L57.975 28.4922C58.4333 27.7578 59.0688 27.3906 59.8813 27.3906C60.1521 27.3906 60.376 27.4271 60.5531 27.5L60.5453 29.2812ZM66.4328 33.7031C66.4328 33.3646 66.2922 33.1068 66.0109 32.9297C65.7349 32.7526 65.274 32.5964 64.6281 32.4609C63.9823 32.3255 63.4432 32.1536 63.0109 31.9453C62.063 31.487 61.5891 30.8229 61.5891 29.9531C61.5891 29.224 61.8964 28.6146 62.5109 28.125C63.1255 27.6354 63.9068 27.3906 64.8547 27.3906C65.8651 27.3906 66.6802 27.6406 67.3 28.1406C67.925 28.6406 68.2375 29.2891 68.2375 30.0859H66.3391C66.3391 29.7214 66.2036 29.4193 65.9328 29.1797C65.662 28.9349 65.3026 28.8125 64.8547 28.8125C64.438 28.8125 64.0969 28.9089 63.8312 29.1016C63.5708 29.2943 63.4406 29.5521 63.4406 29.875C63.4406 30.1667 63.563 30.3932 63.8078 30.5547C64.0526 30.7161 64.5474 30.8802 65.2922 31.0469C66.037 31.2083 66.6203 31.4036 67.0422 31.6328C67.4693 31.8568 67.7844 32.1276 67.9875 32.4453C68.1958 32.763 68.3 33.1484 68.3 33.6016C68.3 34.362 67.9849 34.9792 67.3547 35.4531C66.7245 35.9219 65.899 36.1562 64.8781 36.1562C64.1854 36.1562 63.5682 36.0312 63.0266 35.7812C62.4849 35.5312 62.063 35.1875 61.7609 34.75C61.4589 34.3125 61.3078 33.8411 61.3078 33.3359H63.1516C63.1776 33.7839 63.3469 34.1302 63.6594 34.375C63.9719 34.6146 64.3859 34.7344 64.9016 34.7344C65.4016 34.7344 65.7818 34.6406 66.0422 34.4531C66.3026 34.2604 66.4328 34.0104 66.4328 33.7031ZM81.2625 31.8594C81.2625 33.1719 80.9682 34.2161 80.3797 34.9922C79.7964 35.7682 78.9917 36.1562 77.9656 36.1562C76.976 36.1562 76.2052 35.7995 75.6531 35.0859L75.5594 36H73.8406V24H75.7391V28.3594C76.2859 27.7135 77.0229 27.3906 77.95 27.3906C78.9813 27.3906 79.7911 27.7734 80.3797 28.5391C80.9682 29.3047 81.2625 30.375 81.2625 31.75V31.8594ZM79.3641 31.6953C79.3641 30.7786 79.2026 30.0911 78.8797 29.6328C78.5568 29.1745 78.088 28.9453 77.4734 28.9453C76.6505 28.9453 76.0724 29.3047 75.7391 30.0234V33.5078C76.0776 34.2422 76.6609 34.6094 77.4891 34.6094C78.0828 34.6094 78.5411 34.388 78.8641 33.9453C79.187 33.5026 79.3536 32.8333 79.3641 31.9375V31.6953ZM85.6734 33.2812L87.3922 27.5469H89.4156L86.0563 37.2812C85.5406 38.7031 84.6656 39.4141 83.4313 39.4141C83.1552 39.4141 82.8505 39.3672 82.5172 39.2734V37.8047L82.8766 37.8281C83.3557 37.8281 83.7151 37.7396 83.9547 37.5625C84.1995 37.3906 84.3922 37.099 84.5328 36.6875L84.8063 35.9609L81.8375 27.5469H83.8844L85.6734 33.2812ZM94.0422 31.7109C94.0422 30.4089 94.3443 29.3646 94.9484 28.5781C95.5526 27.7865 96.3625 27.3906 97.3781 27.3906C98.274 27.3906 98.9979 27.7031 99.55 28.3281V24H101.448V36H99.7297L99.6359 35.125C99.0682 35.8125 98.3104 36.1562 97.3625 36.1562C96.3729 36.1562 95.5708 35.7578 94.9563 34.9609C94.3469 34.1641 94.0422 33.0807 94.0422 31.7109ZM95.9406 31.875C95.9406 32.7344 96.1047 33.4062 96.4328 33.8906C96.7661 34.3698 97.2375 34.6094 97.8469 34.6094C98.6229 34.6094 99.1906 34.263 99.55 33.5703V29.9609C99.201 29.2839 98.6385 28.9453 97.8625 28.9453C97.2479 28.9453 96.774 29.1901 96.4406 29.6797C96.1073 30.1641 95.9406 30.8958 95.9406 31.875ZM107.102 36.1562C105.898 36.1562 104.922 35.7786 104.172 35.0234C103.427 34.263 103.055 33.2526 103.055 31.9922V31.7578C103.055 30.9141 103.216 30.1615 103.539 29.5C103.867 28.8333 104.326 28.3151 104.914 27.9453C105.503 27.5755 106.159 27.3906 106.883 27.3906C108.034 27.3906 108.922 27.7578 109.547 28.4922C110.177 29.2266 110.492 30.2656 110.492 31.6094V32.375H104.969C105.026 33.0729 105.258 33.625 105.664 34.0312C106.076 34.4375 106.591 34.6406 107.211 34.6406C108.081 34.6406 108.789 34.2891 109.336 33.5859L110.359 34.5625C110.021 35.0677 109.568 35.4609 109 35.7422C108.438 36.0182 107.805 36.1562 107.102 36.1562ZM106.875 28.9141C106.354 28.9141 105.932 29.0964 105.609 29.4609C105.292 29.8255 105.089 30.3333 105 30.9844H108.617V30.8438C108.576 30.2083 108.406 29.7292 108.109 29.4062C107.812 29.0781 107.401 28.9141 106.875 28.9141ZM114.794 33.5938L116.583 27.5469H118.544L115.614 36H113.966L111.012 27.5469H112.981L114.794 33.5938ZM121.705 36H119.806V27.5469H121.705V36ZM119.689 25.3516C119.689 25.0599 119.78 24.8177 119.963 24.625C120.15 24.4323 120.416 24.3359 120.759 24.3359C121.103 24.3359 121.369 24.4323 121.556 24.625C121.744 24.8177 121.838 25.0599 121.838 25.3516C121.838 25.638 121.744 25.8776 121.556 26.0703C121.369 26.2578 121.103 26.3516 120.759 26.3516C120.416 26.3516 120.15 26.2578 119.963 26.0703C119.78 25.8776 119.689 25.638 119.689 25.3516ZM127.202 34.6406C127.676 34.6406 128.069 34.5026 128.381 34.2266C128.694 33.9505 128.86 33.6094 128.881 33.2031H130.67C130.649 33.7292 130.485 34.2214 130.178 34.6797C129.871 35.1328 129.454 35.4922 128.928 35.7578C128.402 36.0234 127.834 36.1562 127.225 36.1562C126.043 36.1562 125.105 35.7734 124.412 35.0078C123.72 34.2422 123.373 33.1849 123.373 31.8359V31.6406C123.373 30.3542 123.717 29.3255 124.405 28.5547C125.092 27.7786 126.03 27.3906 127.217 27.3906C128.222 27.3906 129.04 27.6849 129.67 28.2734C130.306 28.8568 130.639 29.625 130.67 30.5781H128.881C128.86 30.0938 128.694 29.6953 128.381 29.3828C128.074 29.0703 127.681 28.9141 127.202 28.9141C126.587 28.9141 126.113 29.138 125.78 29.5859C125.446 30.0286 125.277 30.7031 125.272 31.6094V31.9141C125.272 32.8307 125.436 33.5156 125.764 33.9688C126.097 34.4167 126.577 34.6406 127.202 34.6406ZM135.777 36.1562C134.573 36.1562 133.597 35.7786 132.847 35.0234C132.102 34.263 131.73 33.2526 131.73 31.9922V31.7578C131.73 30.9141 131.891 30.1615 132.214 29.5C132.542 28.8333 133.001 28.3151 133.589 27.9453C134.178 27.5755 134.834 27.3906 135.558 27.3906C136.709 27.3906 137.597 27.7578 138.222 28.4922C138.852 29.2266 139.167 30.2656 139.167 31.6094V32.375H133.644C133.701 33.0729 133.933 33.625 134.339 34.0312C134.751 34.4375 135.266 34.6406 135.886 34.6406C136.756 34.6406 137.464 34.2891 138.011 33.5859L139.034 34.5625C138.696 35.0677 138.243 35.4609 137.675 35.7422C137.113 36.0182 136.48 36.1562 135.777 36.1562ZM135.55 28.9141C135.029 28.9141 134.607 29.0964 134.284 29.4609C133.967 29.8255 133.764 30.3333 133.675 30.9844H137.292V30.8438C137.251 30.2083 137.081 29.7292 136.784 29.4062C136.488 29.0781 136.076 28.9141 135.55 28.9141Z" fill="#3A3B3F"/>
<path fill-rule="evenodd" clip-rule="evenodd" d="M344.813 25C341.559 25 338.915 27.69 338.915 31H341.864L337.932 35L334 31H336.949C336.949 26.58 340.468 23 344.813 23C346.356 23 347.791 23.46 349 24.24L347.565 25.7C346.749 25.25 345.805 25 344.813 25ZM348.136 31L352.068 27L356 31H353.051C353.051 35.42 349.532 39 345.187 39C343.644 39 342.209 38.54 341 37.76L342.435 36.3C343.251 36.75 344.195 37 345.187 37C348.441 37 351.085 34.31 351.085 31H348.136Z" fill="#66788A"/>
<mask id="mask3" mask-type="alpha" maskUnits="userSpaceOnUse" x="334" y="23" width="22" height="16">
<path fill-rule="evenodd" clip-rule="evenodd" d="M344.813 25C341.559 25 338.915 27.69 338.915 31H341.864L337.932 35L334 31H336.949C336.949 26.58 340.468 23 344.813 23C346.356 23 347.791 23.46 349 24.24L347.565 25.7C346.749 25.25 345.805 25 344.813 25ZM348.136 31L352.068 27L356 31H353.051C353.051 35.42 349.532 39 345.187 39C343.644 39 342.209 38.54 341 37.76L342.435 36.3C343.251 36.75 344.195 37 345.187 37C348.441 37 351.085 34.31 351.085 31H348.136Z" fill="white"/>
</mask>
<g mask="url(#mask3)">
</g>
<defs>
<filter id="filter0_dd" x="0" y="0" width="385" height="553" filterUnits="userSpaceOnUse" color-interpolation-filters="sRGB">
<feFlood flood-opacity="0" result="BackgroundImageFix"/>
<feColorMatrix in="SourceAlpha" type="matrix" values="0 0 0 0 0 0 0 0 0 0 0 0 0 0 0 0 0 0 127 0"/>
<feOffset dy="1"/>
<feGaussianBlur stdDeviation="1.5"/>
<feColorMatrix type="matrix" values="0 0 0 0 0.2471 0 0 0 0 0.2471 0 0 0 0 0.2667 0 0 0 0.15 0"/>
<feBlend mode="normal" in2="BackgroundImageFix" result="effect1_dropShadow"/>
<feColorMatrix in="SourceAlpha" type="matrix" values="0 0 0 0 0 0 0 0 0 0 0 0 0 0 0 0 0 0 127 0"/>
<feOffset dy="1"/>
<feColorMatrix type="matrix" values="0 0 0 0 0.2471 0 0 0 0 0.2471 0 0 0 0 0.2667 0 0 0 0.05 0"/>
<feBlend mode="normal" in2="effect1_dropShadow" result="effect2_dropShadow"/>
<feBlend mode="normal" in="SourceGraphic" in2="effect2_dropShadow" result="shape"/>
</filter>
<clipPath id="clip0">
<rect width="377" height="40" fill="white" transform="translate(4 508)"/>
</clipPath>
<clipPath id="clip1">
<rect width="57" height="56" fill="white" transform="translate(87 387)"/>
</clipPath>
<clipPath id="clip2">
<rect width="57" height="56" fill="white" transform="translate(164 387)"/>
</clipPath>
<clipPath id="clip3">
<rect width="57" height="56" fill="white" transform="translate(241 387)"/>
</clipPath>
</defs>
</svg>
